<svg id="Capa_1" data-name="Capa 1" xmlns="http://www.w3.org/2000/svg" xmlns:xlink="http://www.w3.org/1999/xlink" viewBox="0 0 1000 1000"><defs><style>.cls-1{fill:none;}.cls-2{fill:#2b2c2c;}.cls-3{fill:#99aed3;}.cls-4{fill:#1c3763;}.cls-5{fill:#d3d3d4;}.cls-6{fill:#a9a9a9;}.cls-7{fill:#959595;}.cls-8{fill:#bfbebe;}.cls-9{fill:#214175;}.cls-10{fill:#555454;}.cls-11{opacity:0.75;}.cls-12{clip-path:url(#clip-path);}.cls-13{fill:#797c7c;}.cls-14{clip-path:url(#clip-path-2);}.cls-15{clip-path:url(#clip-path-3);}.cls-16{clip-path:url(#clip-path-4);}.cls-17{fill:#7e7e7f;}.cls-18{fill:#fff;opacity:0.2;}</style><clipPath id="clip-path"><path class="cls-1" d="M206.5,626.56H175.14c-2.74,0-4.15-2.22-3.15-4.95l14.33-39.39a7.85,7.85,0,0,1,6.75-5h31.37c2.73,0,4.14,2.22,3.15,5l-14.33,39.39A7.85,7.85,0,0,1,206.5,626.56Zm51.05-4.95,14.34-39.39c1-2.73-.42-5-3.15-5H237.37a7.83,7.83,0,0,0-6.75,5l-14.34,39.39c-1,2.73.42,4.95,3.15,4.95H250.8A7.83,7.83,0,0,0,257.55,621.61Zm44.3,0,14.33-39.39c1-2.73-.41-5-3.15-5H281.67a7.85,7.85,0,0,0-6.76,5l-14.33,39.39c-1,2.73.41,4.95,3.15,4.95h31.36A7.85,7.85,0,0,0,301.85,621.61Zm44.26.09,14.34-39.38c1-2.74-.42-5-3.15-5H325.93a7.82,7.82,0,0,0-6.75,5L304.84,621.7c-1,2.73.42,4.95,3.15,4.95h31.37A7.83,7.83,0,0,0,346.11,621.7ZM194.22,673.91l14.33-39.38c1-2.74-.41-4.95-3.15-4.95H174a7.83,7.83,0,0,0-6.76,4.95L153,673.91c-1,2.74.41,5,3.15,5h31.36A7.83,7.83,0,0,0,194.22,673.91Zm44.29,0,14.34-39.38c1-2.74-.42-4.95-3.15-4.95H218.33a7.82,7.82,0,0,0-6.75,4.95l-14.34,39.38c-1,2.74.42,5,3.15,5h31.37A7.82,7.82,0,0,0,238.51,673.91Zm44.3,0,14.33-39.38c1-2.74-.41-4.95-3.14-4.95H262.63a7.8,7.8,0,0,0-6.75,4.95l-14.34,39.38c-1,2.74.42,5,3.15,5h31.37A7.82,7.82,0,0,0,282.81,673.91Zm44.26.09,14.34-39.38c1-2.73-.42-5-3.15-5H306.89a7.83,7.83,0,0,0-6.75,5L285.8,674c-1,2.74.42,5,3.15,5h31.37A7.83,7.83,0,0,0,327.07,674ZM175.18,726.22l14.34-39.39c1-2.73-.42-5-3.15-5H155a7.83,7.83,0,0,0-6.75,5l-14.34,39.39c-1,2.73.42,4.95,3.15,4.95h31.37A7.83,7.83,0,0,0,175.18,726.22Zm44.3,0,14.33-39.39c1-2.73-.41-5-3.15-5H199.3a7.85,7.85,0,0,0-6.76,5l-14.33,39.39c-1,2.73.41,4.95,3.15,4.95h31.36A7.85,7.85,0,0,0,219.48,726.22Zm44.29,0,14.34-39.39c1-2.73-.42-5-3.15-5H243.59a7.83,7.83,0,0,0-6.75,5L222.5,726.22c-1,2.73.42,4.95,3.15,4.95H257A7.83,7.83,0,0,0,263.77,726.22Zm44.27.09,14.33-39.39c1-2.73-.41-4.95-3.15-4.95H287.86a7.85,7.85,0,0,0-6.76,4.95l-14.33,39.39c-1,2.73.41,5,3.15,5h31.36A7.85,7.85,0,0,0,308,726.31Zm-151.9,52.21,14.34-39.38c1-2.74-.42-5-3.15-5H136a7.83,7.83,0,0,0-6.75,5l-14.34,39.38c-1,2.74.42,5,3.15,5h31.37A7.82,7.82,0,0,0,156.14,778.52Zm44.3,0,14.33-39.38c1-2.74-.41-5-3.15-5H180.26a7.84,7.84,0,0,0-6.76,5l-14.33,39.38c-1,2.74.41,5,3.15,5h31.37A7.83,7.83,0,0,0,200.44,778.52Zm44.3,0,14.33-39.38c1-2.74-.41-5-3.15-5H224.56a7.84,7.84,0,0,0-6.76,5l-14.33,39.38c-1,2.74.41,5,3.15,5H238A7.83,7.83,0,0,0,244.74,778.52Zm44.26.09,14.33-39.38c1-2.74-.41-5-3.15-5H268.82a7.83,7.83,0,0,0-6.76,5l-14.33,39.38c-1,2.74.41,4.95,3.15,4.95h31.36A7.83,7.83,0,0,0,289,778.61ZM137.11,830.82l14.33-39.38c1-2.73-.41-5-3.15-5H116.93a7.85,7.85,0,0,0-6.76,5L95.84,830.82c-1,2.74.41,5,3.15,5h31.36A7.84,7.84,0,0,0,137.11,830.82Zm44.29,0,14.34-39.38c1-2.73-.42-5-3.15-5H161.22a7.83,7.83,0,0,0-6.75,5l-14.34,39.38c-1,2.74.42,5,3.15,5h31.37A7.83,7.83,0,0,0,181.4,830.82Zm44.3,0L240,791.44c1-2.73-.41-5-3.15-5H205.52a7.85,7.85,0,0,0-6.76,5l-14.33,39.38c-1,2.74.41,5,3.15,5h31.36A7.84,7.84,0,0,0,225.7,830.82Zm44.26.1,14.34-39.39c1-2.73-.42-4.95-3.15-4.95H249.78a7.83,7.83,0,0,0-6.75,4.95l-14.34,39.39c-1,2.73.42,5,3.15,5h31.37A7.83,7.83,0,0,0,270,830.92ZM118.07,883.13l14.33-39.38c1-2.74-.41-5-3.15-5H97.89a7.84,7.84,0,0,0-6.76,5L76.8,883.13c-1,2.73.41,5,3.15,5h31.36A7.85,7.85,0,0,0,118.07,883.13Zm44.3,0,14.33-39.38c1-2.74-.41-5-3.15-5H142.18a7.84,7.84,0,0,0-6.75,5L121.1,883.13c-1,2.73.41,5,3.15,5h31.36A7.85,7.85,0,0,0,162.37,883.13Zm44.29,0L221,843.75c1-2.74-.42-5-3.15-5H186.48a7.83,7.83,0,0,0-6.75,5l-14.34,39.38c-1,2.73.42,5,3.15,5h31.37A7.83,7.83,0,0,0,206.66,883.13Zm44.26.09,14.34-39.38c1-2.74-.42-5-3.15-5H230.74a7.83,7.83,0,0,0-6.75,5l-14.34,39.38c-1,2.74.42,4.95,3.15,4.95h31.37A7.8,7.8,0,0,0,250.92,883.22ZM99,935.43l14.34-39.38c1-2.74-.42-4.95-3.15-4.95H78.85a7.82,7.82,0,0,0-6.75,4.95L57.76,935.43c-1,2.74.42,5,3.15,5H92.28A7.83,7.83,0,0,0,99,935.43Zm44.3,0,14.33-39.38c1-2.74-.41-4.95-3.15-4.95H123.15a7.83,7.83,0,0,0-6.76,4.95l-14.33,39.38c-1,2.74.41,5,3.15,5h31.36A7.84,7.84,0,0,0,143.33,935.43Zm44.29,0L202,896.05c1-2.74-.42-4.95-3.15-4.95H167.44a7.82,7.82,0,0,0-6.75,4.95l-14.34,39.38c-1,2.74.42,5,3.15,5h31.37A7.83,7.83,0,0,0,187.62,935.43Zm44.27.09,14.33-39.38c1-2.73-.41-4.95-3.15-4.95H211.71a7.85,7.85,0,0,0-6.76,4.95l-14.33,39.38c-1,2.74.41,5,3.15,5h31.36A7.84,7.84,0,0,0,231.89,935.52Z"/></clipPath><clipPath id="clip-path-2"><path class="cls-1" d="M398,626.56H366.66c-2.74,0-4.15-2.22-3.15-4.95l14.33-39.39a7.85,7.85,0,0,1,6.75-5H416c2.73,0,4.15,2.22,3.15,5l-14.33,39.39A7.85,7.85,0,0,1,398,626.56Zm51.05-4.95,14.34-39.39c1-2.73-.42-5-3.15-5H428.89a7.83,7.83,0,0,0-6.75,5L407.8,621.61c-1,2.73.42,4.95,3.15,4.95h31.37A7.83,7.83,0,0,0,449.07,621.61Zm44.3,0,14.33-39.39c1-2.73-.41-5-3.15-5H473.19a7.85,7.85,0,0,0-6.76,5L452.1,621.61c-1,2.73.41,4.95,3.15,4.95h31.36A7.85,7.85,0,0,0,493.37,621.61Zm44.26.09L552,582.32c1-2.74-.42-5-3.15-5H517.45a7.83,7.83,0,0,0-6.75,5L496.36,621.7c-1,2.73.42,4.95,3.15,4.95h31.37A7.83,7.83,0,0,0,537.63,621.7ZM385.74,673.91l14.33-39.38c1-2.74-.41-4.95-3.15-4.95H365.56a7.83,7.83,0,0,0-6.76,4.95l-14.33,39.38c-1,2.74.41,5,3.15,5H379A7.83,7.83,0,0,0,385.74,673.91Zm44.29,0,14.34-39.38c1-2.74-.42-4.95-3.15-4.95H409.85a7.82,7.82,0,0,0-6.75,4.95l-14.34,39.38c-1,2.74.42,5,3.15,5h31.37A7.82,7.82,0,0,0,430,673.91Zm44.3,0,14.34-39.38c1-2.74-.42-4.95-3.15-4.95H454.15a7.8,7.8,0,0,0-6.75,4.95l-14.34,39.38c-1,2.74.42,5,3.15,5h31.37A7.82,7.82,0,0,0,474.33,673.91Zm44.26.09,14.34-39.38c1-2.73-.42-5-3.15-5H498.41a7.83,7.83,0,0,0-6.75,5L477.32,674c-1,2.74.42,5,3.15,5h31.37A7.83,7.83,0,0,0,518.59,674ZM366.7,726.22,381,686.83c1-2.73-.42-5-3.15-5H346.52a7.83,7.83,0,0,0-6.75,5l-14.34,39.39c-1,2.73.42,4.95,3.15,4.95H360A7.83,7.83,0,0,0,366.7,726.22Zm44.3,0,14.33-39.39c1-2.73-.41-5-3.15-5H390.82a7.85,7.85,0,0,0-6.76,5l-14.33,39.39c-1,2.73.41,4.95,3.15,4.95h31.36A7.85,7.85,0,0,0,411,726.22Zm44.29,0,14.34-39.39c1-2.73-.42-5-3.15-5H435.11a7.83,7.83,0,0,0-6.75,5L414,726.22c-1,2.73.42,4.95,3.15,4.95h31.37A7.83,7.83,0,0,0,455.29,726.22Zm44.27.09,14.33-39.39c1-2.73-.41-4.95-3.15-4.95H479.38a7.85,7.85,0,0,0-6.76,4.95l-14.33,39.39c-1,2.73.41,5,3.15,5H492.8A7.85,7.85,0,0,0,499.56,726.31Zm-151.9,52.21L362,739.14c1-2.74-.42-5-3.15-5H327.48a7.83,7.83,0,0,0-6.75,5l-14.34,39.38c-1,2.74.42,5,3.15,5h31.37A7.82,7.82,0,0,0,347.66,778.52Zm44.3,0,14.33-39.38c1-2.74-.41-5-3.15-5H371.78a7.84,7.84,0,0,0-6.76,5l-14.33,39.38c-1,2.74.41,5,3.15,5h31.37A7.83,7.83,0,0,0,392,778.52Zm44.3,0,14.33-39.38c1-2.74-.41-5-3.15-5H416.08a7.84,7.84,0,0,0-6.76,5L395,778.52c-1,2.74.41,5,3.15,5H429.5A7.83,7.83,0,0,0,436.26,778.52Zm44.26.09,14.33-39.38c1-2.74-.41-5-3.15-5H460.34a7.83,7.83,0,0,0-6.76,5l-14.33,39.38c-1,2.74.41,4.95,3.15,4.95h31.36A7.83,7.83,0,0,0,480.52,778.61ZM328.63,830.82,343,791.44c1-2.73-.41-5-3.15-5H308.45a7.85,7.85,0,0,0-6.76,5l-14.33,39.38c-1,2.74.41,5,3.15,5h31.36A7.84,7.84,0,0,0,328.63,830.82Zm44.29,0,14.34-39.38c1-2.73-.42-5-3.15-5H352.74a7.83,7.83,0,0,0-6.75,5l-14.34,39.38c-1,2.74.42,5,3.15,5h31.37A7.83,7.83,0,0,0,372.92,830.82Zm44.3,0,14.33-39.38c1-2.73-.41-5-3.15-5H397a7.85,7.85,0,0,0-6.76,5L376,830.82c-1,2.74.41,5,3.15,5h31.36A7.84,7.84,0,0,0,417.22,830.82Zm44.26.1,14.34-39.39c1-2.73-.42-4.95-3.15-4.95H441.3a7.83,7.83,0,0,0-6.75,4.95l-14.34,39.39c-1,2.73.42,5,3.15,5h31.37A7.83,7.83,0,0,0,461.48,830.92ZM309.59,883.13l14.33-39.38c1-2.74-.41-5-3.15-5H289.41a7.84,7.84,0,0,0-6.76,5l-14.33,39.38c-1,2.73.41,5,3.15,5h31.36A7.85,7.85,0,0,0,309.59,883.13Zm44.3,0,14.33-39.38c1-2.74-.41-5-3.15-5H333.71a7.84,7.84,0,0,0-6.76,5l-14.33,39.38c-1,2.73.41,5,3.15,5h31.36A7.85,7.85,0,0,0,353.89,883.13Zm44.29,0,14.34-39.38c1-2.74-.42-5-3.15-5H378a7.83,7.83,0,0,0-6.75,5l-14.34,39.38c-1,2.73.42,5,3.15,5h31.37A7.83,7.83,0,0,0,398.18,883.13Zm44.26.09,14.34-39.38c1-2.74-.42-5-3.15-5H422.26a7.83,7.83,0,0,0-6.75,5l-14.33,39.38c-1,2.74.41,4.95,3.14,4.95h31.37A7.8,7.8,0,0,0,442.44,883.22ZM290.55,935.43l14.34-39.38c1-2.74-.42-4.95-3.15-4.95H270.37a7.82,7.82,0,0,0-6.75,4.95l-14.34,39.38c-1,2.74.42,5,3.15,5H283.8A7.83,7.83,0,0,0,290.55,935.43Zm44.3,0,14.33-39.38c1-2.74-.41-4.95-3.15-4.95H314.67a7.83,7.83,0,0,0-6.76,4.95l-14.33,39.38c-1,2.74.41,5,3.15,5h31.36A7.84,7.84,0,0,0,334.85,935.43Zm44.29,0,14.34-39.38c1-2.74-.42-4.95-3.15-4.95H359a7.82,7.82,0,0,0-6.75,4.95l-14.33,39.38c-1,2.74.41,5,3.14,5h31.37A7.82,7.82,0,0,0,379.14,935.43Zm44.27.09,14.33-39.38c1-2.73-.41-4.95-3.15-4.95H403.23a7.85,7.85,0,0,0-6.76,4.95l-14.33,39.38c-1,2.74.41,5,3.15,5h31.36A7.84,7.84,0,0,0,423.41,935.52Z"/></clipPath><clipPath id="clip-path-3"><path class="cls-1" d="M589.54,626.56H558.18c-2.74,0-4.15-2.22-3.15-4.95l14.33-39.39a7.85,7.85,0,0,1,6.75-5h31.37c2.73,0,4.15,2.22,3.15,5L596.3,621.61A7.85,7.85,0,0,1,589.54,626.56Zm51.05-4.95,14.34-39.39c1-2.73-.42-5-3.15-5H620.41a7.83,7.83,0,0,0-6.75,5l-14.34,39.39c-1,2.73.42,4.95,3.15,4.95h31.37A7.83,7.83,0,0,0,640.59,621.61Zm44.3,0,14.33-39.39c1-2.73-.41-5-3.15-5H664.71a7.85,7.85,0,0,0-6.76,5l-14.33,39.39c-1,2.73.41,4.95,3.15,4.95h31.36A7.85,7.85,0,0,0,684.89,621.61Zm44.26.09,14.34-39.38c1-2.74-.42-5-3.15-5H709a7.83,7.83,0,0,0-6.75,5L687.88,621.7c-1,2.73.42,4.95,3.15,4.95H722.4A7.83,7.83,0,0,0,729.15,621.7ZM577.26,673.91l14.33-39.38c1-2.74-.41-4.95-3.15-4.95H557.08a7.83,7.83,0,0,0-6.76,4.95L536,673.91c-1,2.74.41,5,3.15,5H570.5A7.83,7.83,0,0,0,577.26,673.91Zm44.29,0,14.34-39.38c1-2.74-.42-4.95-3.15-4.95H601.37a7.82,7.82,0,0,0-6.75,4.95l-14.34,39.38c-1,2.74.42,5,3.15,5H614.8A7.82,7.82,0,0,0,621.55,673.91Zm44.3,0,14.34-39.38c1-2.74-.42-4.95-3.15-4.95H645.67a7.82,7.82,0,0,0-6.75,4.95l-14.34,39.38c-1,2.74.42,5,3.15,5H659.1A7.82,7.82,0,0,0,665.85,673.91Zm44.26.09,14.34-39.38c1-2.73-.42-5-3.15-5H689.93a7.83,7.83,0,0,0-6.75,5L668.84,674c-1,2.74.42,5,3.15,5h31.37A7.83,7.83,0,0,0,710.11,674ZM558.22,726.22l14.34-39.39c1-2.73-.42-5-3.15-5H538a7.83,7.83,0,0,0-6.75,5L517,726.22c-1,2.73.42,4.95,3.15,4.95h31.37A7.83,7.83,0,0,0,558.22,726.22Zm44.3,0,14.33-39.39c1-2.73-.41-5-3.15-5H582.34a7.85,7.85,0,0,0-6.76,5l-14.33,39.39c-1,2.73.41,4.95,3.15,4.95h31.36A7.85,7.85,0,0,0,602.52,726.22Zm44.29,0,14.34-39.39c1-2.73-.42-5-3.15-5H626.63a7.83,7.83,0,0,0-6.75,5l-14.34,39.39c-1,2.73.42,4.95,3.15,4.95h31.37A7.83,7.83,0,0,0,646.81,726.22Zm44.27.09,14.33-39.39c1-2.73-.41-4.95-3.15-4.95H670.9a7.85,7.85,0,0,0-6.76,4.95l-14.33,39.39c-1,2.73.41,5,3.15,5h31.36A7.85,7.85,0,0,0,691.08,726.31Zm-151.9,52.21,14.34-39.38c1-2.74-.42-5-3.15-5H519a7.83,7.83,0,0,0-6.75,5l-14.34,39.38c-1,2.74.42,5,3.15,5h31.37A7.82,7.82,0,0,0,539.18,778.52Zm44.3,0,14.33-39.38c1-2.74-.41-5-3.15-5H563.3a7.84,7.84,0,0,0-6.76,5l-14.33,39.38c-1,2.74.42,5,3.15,5h31.37A7.83,7.83,0,0,0,583.48,778.52Zm44.3,0,14.33-39.38c1-2.74-.41-5-3.15-5H607.6a7.84,7.84,0,0,0-6.76,5l-14.33,39.38c-1,2.74.41,5,3.15,5H621A7.83,7.83,0,0,0,627.78,778.52Zm44.26.09,14.33-39.38c1-2.74-.41-5-3.15-5H651.86a7.83,7.83,0,0,0-6.76,5l-14.33,39.38c-1,2.74.41,4.95,3.15,4.95h31.36A7.83,7.83,0,0,0,672,778.61ZM520.15,830.82l14.33-39.38c1-2.73-.41-5-3.15-5H500a7.85,7.85,0,0,0-6.76,5l-14.33,39.38c-1,2.74.41,5,3.15,5h31.36A7.84,7.84,0,0,0,520.15,830.82Zm44.29,0,14.34-39.38c1-2.73-.42-5-3.15-5H544.26a7.83,7.83,0,0,0-6.75,5l-14.34,39.38c-1,2.74.42,5,3.15,5h31.37A7.83,7.83,0,0,0,564.44,830.82Zm44.3,0,14.33-39.38c1-2.73-.41-5-3.15-5H588.56a7.85,7.85,0,0,0-6.76,5l-14.33,39.38c-1,2.74.41,5,3.15,5H602A7.84,7.84,0,0,0,608.74,830.82Zm44.26.1,14.34-39.39c1-2.73-.42-4.95-3.15-4.95H632.82a7.83,7.83,0,0,0-6.75,4.95l-14.34,39.39c-1,2.73.42,5,3.15,5h31.37A7.83,7.83,0,0,0,653,830.92ZM501.11,883.13l14.33-39.38c1-2.74-.41-5-3.15-5H480.93a7.84,7.84,0,0,0-6.76,5l-14.33,39.38c-1,2.73.41,5,3.15,5h31.36A7.85,7.85,0,0,0,501.11,883.13Zm44.3,0,14.33-39.38c1-2.74-.41-5-3.15-5H525.23a7.84,7.84,0,0,0-6.76,5l-14.33,39.38c-1,2.73.41,5,3.15,5h31.36A7.85,7.85,0,0,0,545.41,883.13Zm44.29,0L604,843.75c1-2.74-.42-5-3.15-5H569.52a7.83,7.83,0,0,0-6.75,5l-14.34,39.38c-1,2.73.42,5,3.15,5H583A7.83,7.83,0,0,0,589.7,883.13Zm44.27.09,14.33-39.38c1-2.74-.42-5-3.15-5H613.78a7.84,7.84,0,0,0-6.75,5L592.7,883.22c-1,2.74.41,4.95,3.15,4.95h31.36A7.83,7.83,0,0,0,634,883.22Zm-151.9,52.21,14.34-39.38c1-2.74-.42-4.95-3.15-4.95H461.89a7.82,7.82,0,0,0-6.75,4.95L440.8,935.43c-1,2.74.42,5,3.15,5h31.37A7.83,7.83,0,0,0,482.07,935.43Zm44.3,0,14.33-39.38c1-2.74-.41-4.95-3.15-4.95H506.19a7.83,7.83,0,0,0-6.76,4.95L485.1,935.43c-1,2.74.41,5,3.15,5h31.36A7.84,7.84,0,0,0,526.37,935.43Zm44.29,0L585,896.05c1-2.74-.42-4.95-3.15-4.95H550.48a7.82,7.82,0,0,0-6.75,4.95L529.4,935.43c-1,2.74.41,5,3.14,5h31.37A7.82,7.82,0,0,0,570.66,935.43Zm44.27.09,14.33-39.38c1-2.73-.41-4.95-3.15-4.95H594.75a7.85,7.85,0,0,0-6.76,4.95l-14.33,39.38c-1,2.74.41,5,3.15,5h31.36A7.84,7.84,0,0,0,614.93,935.52Z"/></clipPath><clipPath id="clip-path-4"><path class="cls-1" d="M781.06,626.56H749.7c-2.74,0-4.15-2.22-3.15-4.95l14.33-39.39a7.85,7.85,0,0,1,6.75-5H799c2.74,0,4.15,2.22,3.15,5l-14.33,39.39A7.85,7.85,0,0,1,781.06,626.56Zm51.05-4.95,14.34-39.39c1-2.73-.42-5-3.15-5H811.93a7.83,7.83,0,0,0-6.75,5l-14.34,39.39c-1,2.73.42,4.95,3.15,4.95h31.37A7.83,7.83,0,0,0,832.11,621.61Zm44.3,0,14.33-39.39c1-2.73-.41-5-3.15-5H856.23a7.85,7.85,0,0,0-6.76,5l-14.33,39.39c-1,2.73.41,4.95,3.15,4.95h31.36A7.85,7.85,0,0,0,876.41,621.61Zm44.26.09L935,582.32c1-2.74-.42-5-3.15-5H900.49a7.83,7.83,0,0,0-6.75,5L879.4,621.7c-1,2.73.42,4.95,3.15,4.95h31.37A7.83,7.83,0,0,0,920.67,621.7ZM768.78,673.91l14.33-39.38c1-2.74-.41-4.95-3.15-4.95H748.6a7.83,7.83,0,0,0-6.76,4.95l-14.33,39.38c-1,2.74.41,5,3.15,5H762A7.83,7.83,0,0,0,768.78,673.91Zm44.29,0,14.34-39.38c1-2.74-.42-4.95-3.15-4.95H792.89a7.82,7.82,0,0,0-6.75,4.95L771.8,673.91c-1,2.74.42,5,3.15,5h31.37A7.82,7.82,0,0,0,813.07,673.91Zm44.3,0,14.34-39.38c1-2.74-.42-4.95-3.15-4.95H837.19a7.82,7.82,0,0,0-6.75,4.95L816.1,673.91c-1,2.74.42,5,3.15,5h31.37A7.82,7.82,0,0,0,857.37,673.91Zm44.26.09L916,634.62c1-2.73-.42-5-3.15-5H881.45a7.83,7.83,0,0,0-6.75,5L860.36,674c-1,2.74.42,5,3.15,5h31.37A7.83,7.83,0,0,0,901.63,674ZM749.74,726.22l14.34-39.39c1-2.73-.42-5-3.15-5H729.56a7.83,7.83,0,0,0-6.75,5l-14.34,39.39c-1,2.73.42,4.95,3.15,4.95H743A7.83,7.83,0,0,0,749.74,726.22Zm44.3,0,14.33-39.39c1-2.73-.41-5-3.15-5H773.86a7.85,7.85,0,0,0-6.76,5l-14.33,39.39c-1,2.73.41,4.95,3.15,4.95h31.36A7.85,7.85,0,0,0,794,726.22Zm44.29,0,14.34-39.39c1-2.73-.42-5-3.15-5H818.15a7.83,7.83,0,0,0-6.75,5l-14.34,39.39c-1,2.73.42,4.95,3.15,4.95h31.37A7.83,7.83,0,0,0,838.33,726.22Zm44.27.09,14.33-39.39c1-2.73-.41-4.95-3.15-4.95H862.42a7.85,7.85,0,0,0-6.76,4.95l-14.33,39.39c-1,2.73.41,5,3.15,5h31.36A7.85,7.85,0,0,0,882.6,726.31ZM730.7,778.52,745,739.14c1-2.74-.42-5-3.15-5H710.52a7.83,7.83,0,0,0-6.75,5l-14.34,39.38c-1,2.74.42,5,3.15,5H724A7.82,7.82,0,0,0,730.7,778.52Zm44.3,0,14.33-39.38c1-2.74-.41-5-3.15-5H754.82a7.84,7.84,0,0,0-6.76,5l-14.33,39.38c-1,2.74.42,5,3.15,5h31.37A7.83,7.83,0,0,0,775,778.52Zm44.3,0,14.33-39.38c1-2.74-.41-5-3.15-5H799.12a7.84,7.84,0,0,0-6.76,5L778,778.52c-1,2.74.41,5,3.15,5h31.36A7.83,7.83,0,0,0,819.3,778.52Zm44.26.09,14.33-39.38c1-2.74-.41-5-3.15-5H843.38a7.83,7.83,0,0,0-6.76,5l-14.33,39.38c-1,2.74.41,4.95,3.15,4.95H856.8A7.83,7.83,0,0,0,863.56,778.61ZM711.67,830.82,726,791.44c1-2.73-.41-5-3.15-5H691.49a7.85,7.85,0,0,0-6.76,5L670.4,830.82c-1,2.74.41,5,3.15,5h31.36A7.84,7.84,0,0,0,711.67,830.82Zm44.29,0,14.34-39.38c1-2.73-.42-5-3.15-5H735.78a7.83,7.83,0,0,0-6.75,5l-14.34,39.38c-1,2.74.42,5,3.15,5h31.37A7.83,7.83,0,0,0,756,830.82Zm44.3,0,14.33-39.38c1-2.73-.41-5-3.15-5H780.08a7.85,7.85,0,0,0-6.76,5L759,830.82c-1,2.74.41,5,3.15,5H793.5A7.84,7.84,0,0,0,800.26,830.82Zm44.26.1,14.34-39.39c1-2.73-.42-4.95-3.15-4.95H824.34a7.83,7.83,0,0,0-6.75,4.95l-14.34,39.39c-1,2.73.42,5,3.15,5h31.37A7.83,7.83,0,0,0,844.52,830.92ZM692.63,883.13,707,843.75c1-2.74-.41-5-3.15-5H672.45a7.84,7.84,0,0,0-6.76,5l-14.33,39.38c-1,2.73.41,5,3.15,5h31.36A7.85,7.85,0,0,0,692.63,883.13Zm44.3,0,14.33-39.38c1-2.74-.41-5-3.15-5H716.75a7.84,7.84,0,0,0-6.76,5l-14.33,39.38c-1,2.73.41,5,3.15,5h31.36A7.85,7.85,0,0,0,736.93,883.13Zm44.29,0,14.34-39.38c1-2.74-.42-5-3.15-5H761a7.83,7.83,0,0,0-6.75,5L740,883.13c-1,2.73.42,5,3.15,5h31.37A7.83,7.83,0,0,0,781.22,883.13Zm44.27.09,14.33-39.38c1-2.74-.42-5-3.15-5H805.3a7.84,7.84,0,0,0-6.75,5l-14.33,39.38c-1,2.74.41,4.95,3.15,4.95h31.36A7.83,7.83,0,0,0,825.49,883.22Zm-151.9,52.21,14.34-39.38c1-2.74-.42-4.95-3.15-4.95H653.41a7.82,7.82,0,0,0-6.75,4.95l-14.34,39.38c-1,2.74.42,5,3.15,5h31.37A7.83,7.83,0,0,0,673.59,935.43Zm44.3,0,14.33-39.38c1-2.74-.41-4.95-3.15-4.95H697.71a7.83,7.83,0,0,0-6.76,4.95l-14.33,39.38c-1,2.74.41,5,3.15,5h31.36A7.84,7.84,0,0,0,717.89,935.43Zm44.3,0,14.33-39.38c1-2.74-.42-4.95-3.15-4.95H742a7.83,7.83,0,0,0-6.75,4.95l-14.33,39.38c-1,2.74.41,5,3.15,5h31.36A7.84,7.84,0,0,0,762.19,935.43Zm44.26.09,14.33-39.38c1-2.73-.41-4.95-3.15-4.95H786.27a7.85,7.85,0,0,0-6.76,4.95l-14.33,39.38c-1,2.74.41,5,3.15,5h31.36A7.84,7.84,0,0,0,806.45,935.52Z"/></clipPath></defs><path class="cls-2" d="M56.42,293.3V226.44L183.12,45.68h88.73V223.14h31.78V293.3H271.85v49.52H190.14V293.3ZM196.33,136.89l-57,86.25h57Z"/><path class="cls-2" d="M747.79,293.3V226.44L874.49,45.68h88.73V223.14H995V293.3H963.22v49.52H881.51V293.3ZM887.7,136.89l-57,86.25h57Z"/><path class="cls-3" d="M801.81,63.91a21.21,21.21,0,0,0-3-14.72l-.64-.95C793.9,42,784.28,38,773.67,40.34c-2.38-4.77-7.85-8.11-14.22-8.11a17.36,17.36,0,0,0-6.67,1.32c-8.31-8.94-25.81-22.92-53.14-18.06S659.8,44.35,659.8,44.35c-9.46-7.6-29.08-4.33-38.65,3.56-10.08,8.31-9.89,14.63-9.89,14.63-6.67-3.71-17.41,0-19.24,5.53-1.45,4.39.53,8.9,5.24,11.07l.86.35c8.93,3.82,14.43,1.7,14.43,1.7,10.65,19.9,30.76,14.73,40,10.67,2.88-1.27,8.81-3.46,8.81-3.46s16.51,13.59,39.45,14.34c13.69.46,37.07-5.71,42.54-16.61,24.57,12.25,68,2.86,73.6-9.34C819.15,71.94,817,60.32,801.81,63.91Z"/><path class="cls-4" d="M816.91,76.79c-5.65,12.2-49,21.59-73.6,9.34-5.47,10.9-28.85,17.07-42.54,16.61C677.83,102,661.32,88.4,661.32,88.4s-5.93,2.19-8.81,3.46c-9.2,4.06-29.31,9.23-40-10.67,0,0-5.5,2.12-14.43-1.7l-.86-.35c1-.15,2-.33,3-.54C613.4,75.91,631,65,642.69,75.21c-.09-7.93-9.32-13.38-18-12.46,3.89-4.78,11.66-6.84,18.06-4.85S653.8,66,653.27,72a38.14,38.14,0,0,1,22.18-2.63,21.81,21.81,0,0,1,17,12.34C689.92,70,682.79,63.3,669.09,64c-.45-6.69.4-11.24,5-16.6s12.91-8.66,20.37-6.89,12.83,9.37,10,15.6c1.2-1.59,5.58-2.53,8.15-1,2,1.19,2.55,4.54,2.07,5.92,2.06-5.18,8.3-8.86,14.62-8.6s12.15,4.42,13.66,9.74c1-9.92-9.83-19.45-21.28-18.69,15.89-7.64,37.27-2.63,39.67,13.06,6.14-17.51,33.28-14,37.47-7.33,3.07,4.68,3.9,11.22,3,14.72C817,60.32,819.15,71.94,816.91,76.79Z"/><ellipse class="cls-5" cx="567.22" cy="163.52" rx="158.09" ry="158.53"/><path class="cls-6" d="M601.42,9C637.53,42,673.79,98.39,673.79,163.52c0,63.92-35.38,121.22-70.36,154.57A158.66,158.66,0,0,0,601.42,9Z"/><ellipse class="cls-7" cx="510.45" cy="88.51" rx="18.09" ry="18.14"/><ellipse class="cls-8" cx="511.59" cy="89.65" rx="18.11" ry="16.5" transform="translate(90.94 394.31) rotate(-45.85)"/><ellipse class="cls-7" cx="614.02" cy="206.99" rx="18.09" ry="18.14"/><ellipse class="cls-8" cx="615.16" cy="208.13" rx="18.11" ry="16.5" transform="translate(37.36 504.59) rotate(-45.85)"/><ellipse class="cls-7" cx="465.75" cy="163.35" rx="9.9" ry="9.93"/><ellipse class="cls-8" cx="466.37" cy="163.97" rx="9.91" ry="9.03" transform="translate(23.89 384.42) rotate(-45.85)"/><ellipse class="cls-7" cx="606.31" cy="103.49" rx="14.76" ry="14.8"/><ellipse class="cls-8" cx="607.24" cy="104.42" rx="14.78" ry="13.47" transform="translate(109.37 467.43) rotate(-45.85)"/><ellipse class="cls-7" cx="574.11" cy="295.34" rx="14.76" ry="14.8"/><ellipse class="cls-8" cx="575.04" cy="296.27" rx="14.78" ry="13.47" transform="translate(-38.06 502.55) rotate(-45.85)"/><ellipse class="cls-7" cx="553.03" cy="170.17" rx="11.48" ry="11.51"/><ellipse class="cls-8" cx="553.75" cy="170.9" rx="11.49" ry="10.47" transform="translate(45.44 449.22) rotate(-45.85)"/><ellipse class="cls-7" cx="644.14" cy="151.26" rx="5.74" ry="5.75"/><ellipse class="cls-8" cx="644.5" cy="151.62" rx="5.75" ry="5.23" transform="translate(86.81 508.49) rotate(-45.85)"/><ellipse class="cls-7" cx="454.13" cy="230.88" rx="5.74" ry="5.75"/><ellipse class="cls-8" cx="454.49" cy="231.25" rx="5.75" ry="5.23" transform="translate(-27.99 396.31) rotate(-45.85)"/><ellipse class="cls-7" cx="442.66" cy="115.57" rx="5.74" ry="5.75"/><ellipse class="cls-8" cx="443.02" cy="115.93" rx="5.75" ry="5.23" transform="translate(51.27 353.08) rotate(-45.85)"/><ellipse class="cls-7" cx="518.7" cy="244.56" rx="8.94" ry="8.97"/><ellipse class="cls-8" cx="519.26" cy="245.12" rx="8.95" ry="8.16" transform="translate(-18.29 447) rotate(-45.85)"/><path class="cls-3" d="M714.07,294.71c-5.12-3.68-19.75-7-35.36-6.94-13,.07-38.25,7.09-38.25,7.09-9.2-8.21-42.09-15.46-64,.17-5.86-16.38-29.32-23-42.74-12,4.7-23.09-13-48.31-36.21-51.54s-47,16.2-48.63,39.71C449.84,257.2,432,246,420,253.1c-2.13-20.37-22.14-37.15-42.43-35.55s-37.37,21.35-36.22,41.81c-6.73-12-23.19-17.3-35.58-11.51a25,25,0,0,0-3.65,2.13,27,27,0,0,0-7.07,7.38c-15.55-4.59-41.48-.63-48.58,21.2a32.38,32.38,0,0,0-1.53,12.57,28.08,28.08,0,0,0,.79,4.74,11.87,11.87,0,0,0-9.94,6.17c-2.32,4.15-2.39,9.25-1.25,13.85a29.08,29.08,0,0,0,41.69,18.78c6.05,10.62,17.74,17.38,29.88,18.9s24.52-1.85,35.15-7.89c-6.07,16.95,10.89,30.28,17.91,33.38,22.1,9.76,53.91,3.66,69.55-20.2,0,0,8.13,10.86,21,8.44,9.65-1.81,13.66-7.83,15.31-12,7.48,7.73,19.38,15.11,37.06,13.33,17.46-1.76,27.06-9.77,32.2-19.33,6.13,2.6,12,2.94,15.88,1.75,17.7-5.41,16.76-19.43,14.61-22.86a12.21,12.21,0,0,0,6.42.78c3.09-.43,6.85-2.13,10.79-6.5l1.56.56a61.58,61.58,0,0,0,26,3.48c14.94-1.29,26.49-8.13,34.17-13.36,10-.55,19.3-1.11,28.54-2.32q3.5-.43,7-1.05a159.47,159.47,0,0,0,28.3-7.42c1.67-.59,3.35-1.21,5-1.88C716.82,298.81,716.87,296.7,714.07,294.71Z"/><path class="cls-9" d="M712.54,300.48c-1.69.67-3.37,1.29-5,1.88a159.47,159.47,0,0,1-28.3,7.42q-3.53.62-7,1.05c-9.24,1.21-18.51,1.77-28.54,2.32-7.68,5.23-19.23,12.07-34.17,13.36a61.58,61.58,0,0,1-26-3.48l-1.56-.56c-3.94,4.37-7.7,6.07-10.79,6.5a26.31,26.31,0,0,1,1.11-13.25l.09-.24a17.55,17.55,0,0,1,4.2-6.66c3.84-3.61,9.63-4.65,14.8-3.57s9.77,4,13.77,7.42a39,39,0,0,1,38-12.15,30.09,30.09,0,0,0,6.92,1.37,23.32,23.32,0,0,0,6.28-1.14c16.37-4.44,39-8.68,57.75-6C716.87,296.7,716.82,298.81,712.54,300.48Z"/><path class="cls-9" d="M572.27,315.72a12.85,12.85,0,0,0-6.93,2.16,32.17,32.17,0,0,0-24.82-1.22c3-8.86,12.83-14.71,22-13.06-8.81-5.09-22.63-5.21-30.19,1.55-2.36,2.12-5.52,7.31-5.52,7.31S518,300,505.28,298.12c-7.62-1.13-19.81,2.35-25.75,11.8-6.61-21.66-35.45-28.84-53.11-12.7,11.59-4,24.14-3.39,27.17,8.58-10-5.18-24,1-27,11.92-.8-5.59-8.62-8.62-12.9-5a8,8,0,0,0-2.18,8.05c-18.42-13-44.83-5.95-52.81,3.47,3.42-11.32,14.63-16.14,27.35-15.59-13.92-10.94-34.32-14.11-49-4.38,5.9-8,2.29-21-6.59-25.6s-20.84-.53-25.88,8.08-3.3,20.45,3.45,27.86a60.94,60.94,0,0,0-21.68,3.29c6.19,4,7,13.57,7,13.57-10.76-13.46-27.1-12.65-27.1-12.65S270.48,315,280,316a31.85,31.85,0,0,0-8.4-13.33c-6.67-6.57-16.43-7.09-26-6.81a11.87,11.87,0,0,0-9.94,6.17c-2.32,4.15-2.39,9.25-1.25,13.85a29.08,29.08,0,0,0,41.69,18.78c6.05,10.62,17.74,17.38,29.88,18.9s24.52-1.85,35.15-7.89c-6.07,16.95,10.89,30.28,17.91,33.38,22.1,9.76,53.91,3.66,69.55-20.2,0,0,8.13,10.86,21,8.44,9.65-1.81,13.66-7.83,15.31-12,7.48,7.73,19.38,15.11,37.06,13.33,17.46-1.76,27.06-9.77,32.2-19.33,6.13,2.6,12,2.94,15.88,1.75,17.7-5.41,16.76-19.43,14.61-22.86a12.21,12.21,0,0,0,6.42.78c3.09-.43,6.85-2.13,10.79-6.5l1.56.56a61.58,61.58,0,0,0,26,3.48C595.31,320.2,581.5,315.14,572.27,315.72Z"/><rect class="cls-10" x="711.39" y="928.13" width="11.7" height="56.98"/><rect class="cls-10" x="519.87" y="925.92" width="11.7" height="56.98"/><rect class="cls-10" x="331.7" y="925.92" width="11.7" height="56.98"/><rect class="cls-10" x="143.54" y="925.92" width="11.7" height="56.98"/><rect class="cls-10" x="866.69" y="587.23" width="24.77" height="392.8"/><path class="cls-5" d="M229.53,945.41H52.89c-2.73,0-4.14-2.21-3.15-4.95L181.93,577.29a7.83,7.83,0,0,1,6.75-5H365.32c2.73,0,4.14,2.22,3.15,5L236.28,940.46A7.82,7.82,0,0,1,229.53,945.41Z"/><path class="cls-2" d="M206.49,626.58H175.13c-2.74,0-4.15-2.22-3.15-5l14.33-39.38a7.83,7.83,0,0,1,6.76-5h31.36c2.74,0,4.15,2.21,3.15,5l-14.33,39.38A7.84,7.84,0,0,1,206.49,626.58Z"/><path class="cls-2" d="M250.79,626.58H219.43c-2.74,0-4.15-2.22-3.15-5l14.33-39.38a7.83,7.83,0,0,1,6.76-5h31.36c2.74,0,4.15,2.21,3.15,5l-14.33,39.38A7.84,7.84,0,0,1,250.79,626.58Z"/><path class="cls-2" d="M295.09,626.58H263.72c-2.73,0-4.14-2.22-3.15-5l14.34-39.38a7.82,7.82,0,0,1,6.75-5H313c2.73,0,4.14,2.21,3.15,5l-14.34,39.38A7.83,7.83,0,0,1,295.09,626.58Z"/><path class="cls-2" d="M339.35,626.67H308c-2.74,0-4.15-2.22-3.15-5l14.33-39.38a7.85,7.85,0,0,1,6.75-5h31.37c2.73,0,4.15,2.22,3.15,5l-14.33,39.38A7.84,7.84,0,0,1,339.35,626.67Z"/><path class="cls-2" d="M187.46,678.88H156.09c-2.73,0-4.14-2.22-3.15-5l14.34-39.39a7.83,7.83,0,0,1,6.75-4.95H205.4c2.73,0,4.14,2.22,3.15,4.95l-14.34,39.39A7.83,7.83,0,0,1,187.46,678.88Z"/><path class="cls-2" d="M231.75,678.88H200.39c-2.74,0-4.15-2.22-3.15-5l14.33-39.39a7.85,7.85,0,0,1,6.76-4.95h31.36c2.74,0,4.15,2.22,3.15,4.95l-14.33,39.39A7.85,7.85,0,0,1,231.75,678.88Z"/><path class="cls-2" d="M276.05,678.88H244.69c-2.74,0-4.15-2.22-3.15-5l14.33-39.39a7.85,7.85,0,0,1,6.75-4.95H294c2.73,0,4.14,2.22,3.15,4.95l-14.33,39.39A7.85,7.85,0,0,1,276.05,678.88Z"/><path class="cls-2" d="M320.31,679H289c-2.74,0-4.15-2.22-3.15-5l14.33-39.38a7.84,7.84,0,0,1,6.76-5h31.36c2.74,0,4.15,2.22,3.15,5L327.07,674A7.85,7.85,0,0,1,320.31,679Z"/><path class="cls-2" d="M168.42,731.18H137.06c-2.74,0-4.15-2.21-3.15-4.95l14.33-39.38a7.83,7.83,0,0,1,6.75-5h31.37c2.73,0,4.15,2.21,3.15,5l-14.33,39.38A7.83,7.83,0,0,1,168.42,731.18Z"/><path class="cls-2" d="M212.72,731.18H181.35c-2.73,0-4.14-2.21-3.15-4.95l14.34-39.38a7.82,7.82,0,0,1,6.75-5h31.37c2.73,0,4.14,2.21,3.15,5l-14.34,39.38A7.82,7.82,0,0,1,212.72,731.18Z"/><path class="cls-2" d="M257,731.18H225.65c-2.74,0-4.15-2.21-3.15-4.95l14.33-39.38a7.83,7.83,0,0,1,6.76-5H275c2.74,0,4.15,2.21,3.15,5l-14.33,39.38A7.83,7.83,0,0,1,257,731.18Z"/><path class="cls-2" d="M301.28,731.28H269.91c-2.73,0-4.14-2.22-3.15-5l14.34-39.38a7.82,7.82,0,0,1,6.75-5h31.37c2.73,0,4.14,2.21,3.15,5L308,726.32A7.83,7.83,0,0,1,301.28,731.28Z"/><path class="cls-2" d="M149.38,783.49H118c-2.74,0-4.15-2.22-3.15-5l14.33-39.39A7.85,7.85,0,0,1,136,734.2h31.36c2.74,0,4.15,2.22,3.15,4.95l-14.33,39.39A7.85,7.85,0,0,1,149.38,783.49Z"/><path class="cls-2" d="M193.68,783.49H162.31c-2.73,0-4.14-2.22-3.15-5l14.34-39.39a7.83,7.83,0,0,1,6.75-4.95h31.37c2.73,0,4.14,2.22,3.15,4.95l-14.34,39.39A7.83,7.83,0,0,1,193.68,783.49Z"/><path class="cls-2" d="M238,783.49H206.61c-2.73,0-4.14-2.22-3.15-5l14.34-39.39a7.83,7.83,0,0,1,6.75-4.95h31.37c2.73,0,4.14,2.22,3.15,4.95l-14.34,39.39A7.83,7.83,0,0,1,238,783.49Z"/><path class="cls-2" d="M282.24,783.58H250.87c-2.73,0-4.14-2.22-3.15-5l14.34-39.39a7.83,7.83,0,0,1,6.75-5h31.37c2.73,0,4.14,2.22,3.15,5L289,778.63A7.83,7.83,0,0,1,282.24,783.58Z"/><path class="cls-2" d="M130.35,835.79H99c-2.73,0-4.14-2.22-3.15-4.95l14.34-39.38a7.83,7.83,0,0,1,6.75-5h31.37c2.73,0,4.14,2.22,3.15,5L137.1,830.84A7.83,7.83,0,0,1,130.35,835.79Z"/><path class="cls-2" d="M174.64,835.79H143.28c-2.74,0-4.15-2.22-3.15-4.95l14.33-39.38a7.84,7.84,0,0,1,6.76-5h31.36c2.74,0,4.15,2.22,3.15,5L181.4,830.84A7.85,7.85,0,0,1,174.64,835.79Z"/><path class="cls-2" d="M218.94,835.79H187.57c-2.73,0-4.14-2.22-3.15-4.95l14.34-39.38a7.83,7.83,0,0,1,6.75-5h31.37c2.73,0,4.14,2.22,3.15,5l-14.34,39.38A7.83,7.83,0,0,1,218.94,835.79Z"/><path class="cls-2" d="M263.2,835.88H231.84c-2.74,0-4.15-2.21-3.15-5L243,791.55a7.83,7.83,0,0,1,6.76-4.95h31.36c2.74,0,4.15,2.21,3.15,4.95L270,830.93A7.83,7.83,0,0,1,263.2,835.88Z"/><path class="cls-2" d="M111.31,888.1H79.94c-2.73,0-4.14-2.22-3.15-5l14.34-39.38a7.83,7.83,0,0,1,6.75-5h31.37c2.73,0,4.14,2.22,3.15,5l-14.34,39.38A7.83,7.83,0,0,1,111.31,888.1Z"/><path class="cls-2" d="M155.61,888.1H124.24c-2.74,0-4.15-2.22-3.15-5l14.33-39.38a7.85,7.85,0,0,1,6.76-5h31.36c2.74,0,4.15,2.22,3.15,5l-14.33,39.38A7.84,7.84,0,0,1,155.61,888.1Z"/><path class="cls-2" d="M199.9,888.1H168.54c-2.74,0-4.15-2.22-3.15-5l14.33-39.38a7.85,7.85,0,0,1,6.76-5h31.36c2.74,0,4.15,2.22,3.15,5l-14.33,39.38A7.84,7.84,0,0,1,199.9,888.1Z"/><path class="cls-2" d="M244.16,888.19H212.8c-2.74,0-4.15-2.22-3.15-5L224,843.85a7.85,7.85,0,0,1,6.76-5H262.1c2.74,0,4.15,2.22,3.15,5l-14.33,39.39A7.85,7.85,0,0,1,244.16,888.19Z"/><path class="cls-2" d="M92.27,940.4H60.91c-2.74,0-4.15-2.22-3.15-4.95l14.33-39.39a7.85,7.85,0,0,1,6.76-4.95h31.36c2.74,0,4.15,2.22,3.15,4.95L99,935.45A7.85,7.85,0,0,1,92.27,940.4Z"/><path class="cls-2" d="M136.57,940.4H105.2c-2.73,0-4.14-2.22-3.15-4.95l14.34-39.39a7.83,7.83,0,0,1,6.75-4.95h31.37c2.73,0,4.14,2.22,3.15,4.95l-14.34,39.39A7.83,7.83,0,0,1,136.57,940.4Z"/><path class="cls-2" d="M180.86,940.4H149.5c-2.74,0-4.15-2.22-3.15-4.95l14.33-39.39a7.85,7.85,0,0,1,6.76-4.95H198.8c2.74,0,4.15,2.22,3.15,4.95l-14.33,39.39A7.85,7.85,0,0,1,180.86,940.4Z"/><path class="cls-2" d="M225.13,940.49H193.76c-2.73,0-4.14-2.22-3.15-5L205,896.16a7.83,7.83,0,0,1,6.75-5h31.37c2.73,0,4.14,2.22,3.15,5l-14.34,39.38A7.83,7.83,0,0,1,225.13,940.49Z"/><g class="cls-11"><g class="cls-12"><path class="cls-13" d="M82.15,746.83,52.32,725l205.9-218.73,29.83,21.81ZM300.78,559l-16.92-12.36L78,765.35l16.91,12.36Zm32.44,10-6.59-4.82L92,813.48l6.58,4.82ZM321.44,738.77l-2-1.46L113.53,956l2,1.47Zm43.62-21.57-3.72-2.72L88.42,1004.41l3.72,2.72Z"/></g></g><path class="cls-5" d="M421.05,945.41H244.41c-2.73,0-4.14-2.21-3.15-4.95L373.45,577.29a7.83,7.83,0,0,1,6.75-5H556.84c2.73,0,4.14,2.22,3.15,5L427.8,940.46A7.82,7.82,0,0,1,421.05,945.41Z"/><path class="cls-2" d="M398,626.58H366.65c-2.74,0-4.15-2.22-3.15-5l14.33-39.38a7.83,7.83,0,0,1,6.76-5H416c2.74,0,4.15,2.21,3.15,5l-14.33,39.38A7.84,7.84,0,0,1,398,626.58Z"/><path class="cls-2" d="M442.31,626.58H411c-2.74,0-4.15-2.22-3.15-5l14.33-39.38a7.83,7.83,0,0,1,6.76-5h31.36c2.74,0,4.15,2.21,3.15,5l-14.33,39.38A7.84,7.84,0,0,1,442.31,626.58Z"/><path class="cls-2" d="M486.61,626.58H455.24c-2.73,0-4.14-2.22-3.15-5l14.34-39.38a7.82,7.82,0,0,1,6.75-5h31.37c2.73,0,4.14,2.21,3.15,5l-14.34,39.38A7.83,7.83,0,0,1,486.61,626.58Z"/><path class="cls-2" d="M530.87,626.67H499.51c-2.74,0-4.15-2.22-3.15-5l14.33-39.38a7.85,7.85,0,0,1,6.75-5h31.37c2.73,0,4.15,2.22,3.15,5l-14.33,39.38A7.84,7.84,0,0,1,530.87,626.67Z"/><path class="cls-2" d="M379,678.88H347.61c-2.73,0-4.14-2.22-3.15-5l14.34-39.39a7.83,7.83,0,0,1,6.75-4.95h31.37c2.73,0,4.14,2.22,3.15,4.95l-14.34,39.39A7.83,7.83,0,0,1,379,678.88Z"/><path class="cls-2" d="M423.27,678.88H391.91c-2.74,0-4.15-2.22-3.15-5l14.33-39.39a7.85,7.85,0,0,1,6.76-4.95h31.36c2.74,0,4.15,2.22,3.15,4.95L430,673.93A7.85,7.85,0,0,1,423.27,678.88Z"/><path class="cls-2" d="M467.57,678.88H436.21c-2.74,0-4.15-2.22-3.15-5l14.33-39.39a7.85,7.85,0,0,1,6.75-4.95h31.37c2.73,0,4.15,2.22,3.15,4.95l-14.33,39.39A7.85,7.85,0,0,1,467.57,678.88Z"/><path class="cls-2" d="M511.83,679H480.47c-2.74,0-4.15-2.22-3.15-5l14.33-39.38a7.84,7.84,0,0,1,6.76-5h31.36c2.74,0,4.15,2.22,3.15,5L518.59,674A7.85,7.85,0,0,1,511.83,679Z"/><path class="cls-2" d="M359.94,731.18H328.58c-2.74,0-4.15-2.21-3.15-4.95l14.33-39.38a7.83,7.83,0,0,1,6.75-5h31.37c2.74,0,4.15,2.21,3.15,5L366.7,726.23A7.83,7.83,0,0,1,359.94,731.18Z"/><path class="cls-2" d="M404.24,731.18H372.87c-2.73,0-4.14-2.21-3.15-4.95l14.34-39.38a7.82,7.82,0,0,1,6.75-5h31.37c2.73,0,4.14,2.21,3.15,5L411,726.23A7.82,7.82,0,0,1,404.24,731.18Z"/><path class="cls-2" d="M448.53,731.18H417.17c-2.74,0-4.15-2.21-3.15-4.95l14.33-39.38a7.83,7.83,0,0,1,6.76-5h31.36c2.74,0,4.15,2.21,3.15,5l-14.33,39.38A7.83,7.83,0,0,1,448.53,731.18Z"/><path class="cls-2" d="M492.8,731.28H461.43c-2.73,0-4.14-2.22-3.15-5l14.34-39.38a7.82,7.82,0,0,1,6.75-5h31.37c2.73,0,4.14,2.21,3.15,5l-14.34,39.38A7.83,7.83,0,0,1,492.8,731.28Z"/><path class="cls-2" d="M340.9,783.49H309.54c-2.74,0-4.15-2.22-3.15-5l14.33-39.39a7.85,7.85,0,0,1,6.76-4.95h31.36c2.74,0,4.15,2.22,3.15,4.95l-14.33,39.39A7.85,7.85,0,0,1,340.9,783.49Z"/><path class="cls-2" d="M385.2,783.49H353.83c-2.73,0-4.14-2.22-3.15-5L365,739.15a7.83,7.83,0,0,1,6.75-4.95h31.37c2.73,0,4.14,2.22,3.15,4.95L392,778.54A7.83,7.83,0,0,1,385.2,783.49Z"/><path class="cls-2" d="M429.5,783.49H398.13c-2.73,0-4.14-2.22-3.15-5l14.34-39.39a7.83,7.83,0,0,1,6.75-4.95h31.37c2.73,0,4.14,2.22,3.15,4.95l-14.34,39.39A7.83,7.83,0,0,1,429.5,783.49Z"/><path class="cls-2" d="M473.76,783.58H442.39c-2.73,0-4.14-2.22-3.15-5l14.34-39.39a7.83,7.83,0,0,1,6.75-5H491.7c2.73,0,4.14,2.22,3.15,5l-14.34,39.39A7.83,7.83,0,0,1,473.76,783.58Z"/><path class="cls-2" d="M321.87,835.79H290.5c-2.73,0-4.14-2.22-3.15-4.95l14.34-39.38a7.83,7.83,0,0,1,6.75-5h31.37c2.73,0,4.14,2.22,3.15,5l-14.34,39.38A7.83,7.83,0,0,1,321.87,835.79Z"/><path class="cls-2" d="M366.16,835.79H334.8c-2.74,0-4.15-2.22-3.15-4.95L346,791.46a7.84,7.84,0,0,1,6.76-5H384.1c2.74,0,4.15,2.22,3.15,5l-14.33,39.38A7.85,7.85,0,0,1,366.16,835.79Z"/><path class="cls-2" d="M410.46,835.79H379.09c-2.73,0-4.14-2.22-3.15-4.95l14.34-39.38a7.83,7.83,0,0,1,6.75-5H428.4c2.73,0,4.14,2.22,3.15,5l-14.34,39.38A7.83,7.83,0,0,1,410.46,835.79Z"/><path class="cls-2" d="M454.72,835.88H423.36c-2.74,0-4.15-2.21-3.15-5l14.33-39.38a7.83,7.83,0,0,1,6.76-4.95h31.36c2.74,0,4.15,2.21,3.15,4.95l-14.33,39.38A7.83,7.83,0,0,1,454.72,835.88Z"/><path class="cls-2" d="M302.83,888.1H271.46c-2.73,0-4.14-2.22-3.15-5l14.34-39.38a7.83,7.83,0,0,1,6.75-5h31.37c2.73,0,4.14,2.22,3.15,5l-14.34,39.38A7.83,7.83,0,0,1,302.83,888.1Z"/><path class="cls-2" d="M347.13,888.1H315.76c-2.73,0-4.15-2.22-3.15-5l14.33-39.38a7.85,7.85,0,0,1,6.76-5h31.36c2.74,0,4.15,2.22,3.15,5l-14.33,39.38A7.84,7.84,0,0,1,347.13,888.1Z"/><path class="cls-2" d="M391.42,888.1H360.06c-2.74,0-4.15-2.22-3.15-5l14.33-39.38a7.85,7.85,0,0,1,6.76-5h31.36c2.74,0,4.15,2.22,3.15,5l-14.33,39.38A7.84,7.84,0,0,1,391.42,888.1Z"/><path class="cls-2" d="M435.68,888.19H404.32c-2.74,0-4.15-2.22-3.15-5l14.33-39.39a7.85,7.85,0,0,1,6.76-5h31.36c2.74,0,4.15,2.22,3.15,5l-14.33,39.39A7.85,7.85,0,0,1,435.68,888.19Z"/><path class="cls-2" d="M283.79,940.4H252.43c-2.74,0-4.15-2.22-3.15-4.95l14.33-39.39a7.85,7.85,0,0,1,6.76-4.95h31.36c2.74,0,4.15,2.22,3.15,4.95l-14.33,39.39A7.85,7.85,0,0,1,283.79,940.4Z"/><path class="cls-2" d="M328.09,940.4H296.72c-2.73,0-4.14-2.22-3.15-4.95l14.34-39.39a7.83,7.83,0,0,1,6.75-4.95H346c2.73,0,4.14,2.22,3.15,4.95l-14.34,39.39A7.83,7.83,0,0,1,328.09,940.4Z"/><path class="cls-2" d="M372.38,940.4H341c-2.74,0-4.15-2.22-3.15-4.95l14.33-39.39a7.85,7.85,0,0,1,6.76-4.95h31.36c2.74,0,4.15,2.22,3.15,4.95l-14.33,39.39A7.85,7.85,0,0,1,372.38,940.4Z"/><path class="cls-2" d="M416.65,940.49H385.28c-2.73,0-4.14-2.22-3.15-5l14.34-39.38a7.83,7.83,0,0,1,6.75-5h31.37c2.73,0,4.14,2.22,3.15,5L423.4,935.54A7.83,7.83,0,0,1,416.65,940.49Z"/><g class="cls-11"><g class="cls-14"><path class="cls-13" d="M273.67,746.83,243.84,725l205.9-218.73,29.83,21.81ZM492.3,559l-16.91-12.36L269.49,765.35l16.91,12.36Zm32.44,10-6.59-4.82L283.49,813.48l6.58,4.82ZM513,738.77l-2-1.46L305.05,956l2,1.47Zm43.62-21.57-3.72-2.72L279.94,1004.41l3.73,2.72Z"/></g></g><path class="cls-5" d="M612.57,945.41H435.93c-2.73,0-4.14-2.21-3.15-4.95L565,577.29a7.83,7.83,0,0,1,6.75-5H748.36c2.73,0,4.14,2.22,3.15,5L619.32,940.46A7.82,7.82,0,0,1,612.57,945.41Z"/><path class="cls-2" d="M589.53,626.58H558.17c-2.74,0-4.15-2.22-3.15-5l14.33-39.38a7.83,7.83,0,0,1,6.76-5h31.36c2.74,0,4.15,2.21,3.15,5l-14.33,39.38A7.84,7.84,0,0,1,589.53,626.58Z"/><path class="cls-2" d="M633.83,626.58H602.47c-2.74,0-4.15-2.22-3.15-5l14.33-39.38a7.83,7.83,0,0,1,6.76-5h31.36c2.74,0,4.15,2.21,3.15,5l-14.33,39.38A7.84,7.84,0,0,1,633.83,626.58Z"/><path class="cls-2" d="M678.13,626.58H646.76c-2.73,0-4.14-2.22-3.15-5L658,582.24a7.82,7.82,0,0,1,6.75-5h31.37c2.73,0,4.14,2.21,3.15,5l-14.34,39.38A7.83,7.83,0,0,1,678.13,626.58Z"/><path class="cls-2" d="M722.39,626.67H691c-2.74,0-4.15-2.22-3.15-5l14.33-39.38a7.85,7.85,0,0,1,6.75-5h31.37c2.74,0,4.15,2.22,3.15,5l-14.33,39.38A7.84,7.84,0,0,1,722.39,626.67Z"/><path class="cls-2" d="M570.5,678.88H539.13c-2.73,0-4.14-2.22-3.15-5l14.34-39.39a7.83,7.83,0,0,1,6.75-4.95h31.37c2.73,0,4.14,2.22,3.15,4.95l-14.34,39.39A7.83,7.83,0,0,1,570.5,678.88Z"/><path class="cls-2" d="M614.79,678.88H583.43c-2.74,0-4.15-2.22-3.15-5l14.33-39.39a7.85,7.85,0,0,1,6.76-4.95h31.36c2.74,0,4.15,2.22,3.15,4.95l-14.33,39.39A7.85,7.85,0,0,1,614.79,678.88Z"/><path class="cls-2" d="M659.09,678.88H627.73c-2.74,0-4.15-2.22-3.15-5l14.33-39.39a7.85,7.85,0,0,1,6.75-4.95H677c2.73,0,4.15,2.22,3.15,4.95l-14.33,39.39A7.85,7.85,0,0,1,659.09,678.88Z"/><path class="cls-2" d="M703.35,679H672c-2.74,0-4.15-2.22-3.15-5l14.33-39.38a7.84,7.84,0,0,1,6.76-5h31.36c2.74,0,4.15,2.22,3.15,5L710.11,674A7.85,7.85,0,0,1,703.35,679Z"/><path class="cls-2" d="M551.46,731.18H520.1c-2.74,0-4.15-2.21-3.15-4.95l14.33-39.38a7.83,7.83,0,0,1,6.75-5H569.4c2.74,0,4.15,2.21,3.15,5l-14.33,39.38A7.83,7.83,0,0,1,551.46,731.18Z"/><path class="cls-2" d="M595.76,731.18H564.39c-2.73,0-4.14-2.21-3.15-4.95l14.34-39.38a7.82,7.82,0,0,1,6.75-5H613.7c2.73,0,4.14,2.21,3.15,5l-14.34,39.38A7.82,7.82,0,0,1,595.76,731.18Z"/><path class="cls-2" d="M640.05,731.18H608.69c-2.74,0-4.15-2.21-3.15-4.95l14.33-39.38a7.83,7.83,0,0,1,6.76-5H658c2.74,0,4.15,2.21,3.15,5l-14.33,39.38A7.83,7.83,0,0,1,640.05,731.18Z"/><path class="cls-2" d="M684.32,731.28H653c-2.73,0-4.14-2.22-3.15-5l14.34-39.38a7.82,7.82,0,0,1,6.75-5h31.37c2.73,0,4.14,2.21,3.15,5l-14.34,39.38A7.83,7.83,0,0,1,684.32,731.28Z"/><path class="cls-2" d="M532.42,783.49H501.06c-2.74,0-4.15-2.22-3.15-5l14.33-39.39A7.85,7.85,0,0,1,519,734.2h31.36c2.74,0,4.15,2.22,3.15,4.95l-14.33,39.39A7.85,7.85,0,0,1,532.42,783.49Z"/><path class="cls-2" d="M576.72,783.49H545.35c-2.73,0-4.14-2.22-3.15-5l14.34-39.39a7.83,7.83,0,0,1,6.75-4.95h31.37c2.73,0,4.14,2.22,3.15,4.95l-14.34,39.39A7.83,7.83,0,0,1,576.72,783.49Z"/><path class="cls-2" d="M621,783.49H589.65c-2.73,0-4.14-2.22-3.15-5l14.34-39.39a7.83,7.83,0,0,1,6.75-4.95H639c2.73,0,4.14,2.22,3.15,4.95l-14.34,39.39A7.83,7.83,0,0,1,621,783.49Z"/><path class="cls-2" d="M665.28,783.58H633.91c-2.73,0-4.14-2.22-3.15-5l14.34-39.39a7.83,7.83,0,0,1,6.75-5h31.37c2.73,0,4.14,2.22,3.15,5L672,778.63A7.83,7.83,0,0,1,665.28,783.58Z"/><path class="cls-2" d="M513.39,835.79H482c-2.73,0-4.14-2.22-3.15-4.95l14.34-39.38a7.83,7.83,0,0,1,6.75-5h31.37c2.73,0,4.14,2.22,3.15,5l-14.34,39.38A7.83,7.83,0,0,1,513.39,835.79Z"/><path class="cls-2" d="M557.68,835.79H526.32c-2.74,0-4.15-2.22-3.15-4.95l14.33-39.38a7.84,7.84,0,0,1,6.76-5h31.36c2.74,0,4.15,2.22,3.15,5l-14.33,39.38A7.85,7.85,0,0,1,557.68,835.79Z"/><path class="cls-2" d="M602,835.79H570.61c-2.73,0-4.14-2.22-3.15-4.95l14.34-39.38a7.83,7.83,0,0,1,6.75-5h31.37c2.73,0,4.14,2.22,3.15,5l-14.34,39.38A7.83,7.83,0,0,1,602,835.79Z"/><path class="cls-2" d="M646.24,835.88H614.88c-2.74,0-4.15-2.21-3.15-5l14.33-39.38a7.83,7.83,0,0,1,6.76-4.95h31.36c2.74,0,4.15,2.21,3.15,4.95L653,830.93A7.83,7.83,0,0,1,646.24,835.88Z"/><path class="cls-2" d="M494.35,888.1H463c-2.73,0-4.14-2.22-3.15-5l14.34-39.38a7.83,7.83,0,0,1,6.75-5h31.37c2.73,0,4.14,2.22,3.15,5L501.1,883.14A7.83,7.83,0,0,1,494.35,888.1Z"/><path class="cls-2" d="M538.65,888.1H507.28c-2.73,0-4.14-2.22-3.15-5l14.33-39.38a7.85,7.85,0,0,1,6.76-5h31.36c2.74,0,4.15,2.22,3.15,5L545.4,883.14A7.84,7.84,0,0,1,538.65,888.1Z"/><path class="cls-2" d="M582.94,888.1H551.58c-2.74,0-4.15-2.22-3.15-5l14.33-39.38a7.85,7.85,0,0,1,6.76-5h31.36c2.74,0,4.15,2.22,3.15,5L589.7,883.14A7.84,7.84,0,0,1,582.94,888.1Z"/><path class="cls-2" d="M627.2,888.19H595.84c-2.74,0-4.15-2.22-3.15-5L607,843.85a7.85,7.85,0,0,1,6.76-5h31.36c2.74,0,4.15,2.22,3.15,5L634,883.24A7.85,7.85,0,0,1,627.2,888.19Z"/><path class="cls-2" d="M475.31,940.4H444c-2.74,0-4.15-2.22-3.15-4.95l14.33-39.39a7.85,7.85,0,0,1,6.76-4.95h31.36c2.74,0,4.15,2.22,3.15,4.95l-14.33,39.39A7.85,7.85,0,0,1,475.31,940.4Z"/><path class="cls-2" d="M519.61,940.4H488.24c-2.73,0-4.14-2.22-3.15-4.95l14.34-39.39a7.83,7.83,0,0,1,6.75-4.95h31.37c2.73,0,4.14,2.22,3.15,4.95l-14.34,39.39A7.83,7.83,0,0,1,519.61,940.4Z"/><path class="cls-2" d="M563.9,940.4H532.54c-2.74,0-4.15-2.22-3.15-4.95l14.33-39.39a7.85,7.85,0,0,1,6.76-4.95h31.36c2.74,0,4.15,2.22,3.15,4.95l-14.33,39.39A7.85,7.85,0,0,1,563.9,940.4Z"/><path class="cls-2" d="M608.17,940.49H576.8c-2.73,0-4.14-2.22-3.15-5L588,896.16a7.83,7.83,0,0,1,6.75-5h31.37c2.73,0,4.14,2.22,3.15,5l-14.34,39.38A7.83,7.83,0,0,1,608.17,940.49Z"/><g class="cls-11"><g class="cls-15"><path class="cls-13" d="M465.19,746.83,435.36,725l205.9-218.73,29.83,21.81ZM683.82,559l-16.91-12.36L461,765.35l16.91,12.36Zm32.44,10-6.59-4.82L475,813.48l6.58,4.82ZM704.48,738.77l-2-1.46L496.57,956l2,1.47ZM748.1,717.2l-3.72-2.72L471.46,1004.41l3.73,2.72Z"/></g></g><path class="cls-5" d="M804.09,945.41H627.45c-2.73,0-4.14-2.21-3.15-4.95L756.49,577.29a7.83,7.83,0,0,1,6.75-5H939.88c2.73,0,4.14,2.22,3.15,5L810.84,940.46A7.82,7.82,0,0,1,804.09,945.41Z"/><path class="cls-2" d="M781.06,626.58H749.69c-2.74,0-4.15-2.22-3.15-5l14.33-39.38a7.83,7.83,0,0,1,6.76-5H799c2.74,0,4.15,2.21,3.15,5l-14.33,39.38A7.84,7.84,0,0,1,781.06,626.58Z"/><path class="cls-2" d="M825.35,626.58H794c-2.74,0-4.15-2.22-3.15-5l14.33-39.38a7.83,7.83,0,0,1,6.76-5h31.36c2.74,0,4.15,2.21,3.15,5l-14.33,39.38A7.84,7.84,0,0,1,825.35,626.58Z"/><path class="cls-2" d="M869.65,626.58H838.28c-2.73,0-4.14-2.22-3.15-5l14.34-39.38a7.82,7.82,0,0,1,6.75-5h31.37c2.73,0,4.14,2.21,3.15,5L876.4,621.62A7.83,7.83,0,0,1,869.65,626.58Z"/><path class="cls-2" d="M913.91,626.67H882.55c-2.74,0-4.15-2.22-3.15-5l14.33-39.38a7.85,7.85,0,0,1,6.75-5h31.37c2.74,0,4.15,2.22,3.15,5l-14.33,39.38A7.84,7.84,0,0,1,913.91,626.67Z"/><path class="cls-2" d="M762,678.88H730.65c-2.73,0-4.14-2.22-3.15-5l14.34-39.39a7.83,7.83,0,0,1,6.75-4.95H780c2.73,0,4.14,2.22,3.15,4.95l-14.34,39.39A7.83,7.83,0,0,1,762,678.88Z"/><path class="cls-2" d="M806.31,678.88H775c-2.74,0-4.15-2.22-3.15-5l14.33-39.39a7.85,7.85,0,0,1,6.76-4.95h31.36c2.74,0,4.15,2.22,3.15,4.95l-14.33,39.39A7.85,7.85,0,0,1,806.31,678.88Z"/><path class="cls-2" d="M850.61,678.88H819.25c-2.74,0-4.15-2.22-3.15-5l14.33-39.39a7.85,7.85,0,0,1,6.75-4.95h31.37c2.74,0,4.15,2.22,3.15,4.95l-14.33,39.39A7.85,7.85,0,0,1,850.61,678.88Z"/><path class="cls-2" d="M894.87,679H863.51c-2.74,0-4.15-2.22-3.15-5l14.33-39.38a7.84,7.84,0,0,1,6.76-5h31.36c2.74,0,4.15,2.22,3.15,5L901.63,674A7.85,7.85,0,0,1,894.87,679Z"/><path class="cls-2" d="M743,731.18H711.62c-2.74,0-4.15-2.21-3.15-4.95l14.33-39.38a7.83,7.83,0,0,1,6.76-5h31.36c2.74,0,4.15,2.21,3.15,5l-14.33,39.38A7.83,7.83,0,0,1,743,731.18Z"/><path class="cls-2" d="M787.28,731.18H755.91c-2.73,0-4.14-2.21-3.15-4.95l14.34-39.38a7.82,7.82,0,0,1,6.75-5h31.37c2.73,0,4.14,2.21,3.15,5L794,726.23A7.82,7.82,0,0,1,787.28,731.18Z"/><path class="cls-2" d="M831.57,731.18H800.21c-2.74,0-4.15-2.21-3.15-4.95l14.33-39.38a7.83,7.83,0,0,1,6.76-5h31.36c2.74,0,4.15,2.21,3.15,5l-14.33,39.38A7.83,7.83,0,0,1,831.57,731.18Z"/><path class="cls-2" d="M875.84,731.28H844.47c-2.73,0-4.14-2.22-3.15-5l14.34-39.38a7.82,7.82,0,0,1,6.75-5h31.37c2.73,0,4.14,2.21,3.15,5l-14.34,39.38A7.83,7.83,0,0,1,875.84,731.28Z"/><path class="cls-2" d="M723.94,783.49H692.58c-2.74,0-4.15-2.22-3.15-5l14.33-39.39a7.85,7.85,0,0,1,6.76-4.95h31.36c2.74,0,4.15,2.22,3.15,4.95L730.7,778.54A7.85,7.85,0,0,1,723.94,783.49Z"/><path class="cls-2" d="M768.24,783.49H736.87c-2.73,0-4.14-2.22-3.15-5l14.34-39.39a7.83,7.83,0,0,1,6.75-4.95h31.37c2.73,0,4.14,2.22,3.15,4.95L775,778.54A7.82,7.82,0,0,1,768.24,783.49Z"/><path class="cls-2" d="M812.54,783.49H781.17c-2.73,0-4.14-2.22-3.15-5l14.34-39.39a7.83,7.83,0,0,1,6.75-4.95h31.37c2.73,0,4.14,2.22,3.15,4.95l-14.34,39.39A7.83,7.83,0,0,1,812.54,783.49Z"/><path class="cls-2" d="M856.8,783.58H825.43c-2.73,0-4.14-2.22-3.15-5l14.34-39.39a7.83,7.83,0,0,1,6.75-5h31.37c2.73,0,4.14,2.22,3.15,5l-14.34,39.39A7.83,7.83,0,0,1,856.8,783.58Z"/><path class="cls-2" d="M704.91,835.79H673.54c-2.73,0-4.14-2.22-3.15-4.95l14.34-39.38a7.83,7.83,0,0,1,6.75-5h31.37c2.73,0,4.14,2.22,3.15,5l-14.34,39.38A7.83,7.83,0,0,1,704.91,835.79Z"/><path class="cls-2" d="M749.2,835.79H717.84c-2.74,0-4.15-2.22-3.15-4.95L729,791.46a7.84,7.84,0,0,1,6.76-5h31.36c2.74,0,4.15,2.22,3.15,5L756,830.84A7.85,7.85,0,0,1,749.2,835.79Z"/><path class="cls-2" d="M793.5,835.79H762.13c-2.73,0-4.14-2.22-3.15-4.95l14.34-39.38a7.83,7.83,0,0,1,6.75-5h31.37c2.73,0,4.14,2.22,3.15,5l-14.34,39.38A7.83,7.83,0,0,1,793.5,835.79Z"/><path class="cls-2" d="M837.76,835.88H806.4c-2.74,0-4.15-2.21-3.15-5l14.33-39.38a7.83,7.83,0,0,1,6.76-4.95H855.7c2.74,0,4.15,2.21,3.15,4.95l-14.33,39.38A7.83,7.83,0,0,1,837.76,835.88Z"/><path class="cls-2" d="M685.87,888.1H654.5c-2.73,0-4.14-2.22-3.15-5l14.34-39.38a7.83,7.83,0,0,1,6.75-5h31.37c2.73,0,4.14,2.22,3.15,5l-14.34,39.38A7.83,7.83,0,0,1,685.87,888.1Z"/><path class="cls-2" d="M730.17,888.1H698.8c-2.73,0-4.14-2.22-3.15-5L710,843.76a7.85,7.85,0,0,1,6.76-5H748.1c2.74,0,4.15,2.22,3.15,5l-14.33,39.38A7.84,7.84,0,0,1,730.17,888.1Z"/><path class="cls-2" d="M774.46,888.1H743.1c-2.74,0-4.15-2.22-3.15-5l14.33-39.38a7.85,7.85,0,0,1,6.76-5H792.4c2.74,0,4.15,2.22,3.15,5l-14.33,39.38A7.84,7.84,0,0,1,774.46,888.1Z"/><path class="cls-2" d="M818.72,888.19H787.36c-2.74,0-4.15-2.22-3.15-5l14.33-39.39a7.85,7.85,0,0,1,6.76-5h31.36c2.74,0,4.15,2.22,3.15,5l-14.33,39.39A7.85,7.85,0,0,1,818.72,888.19Z"/><path class="cls-2" d="M666.83,940.4H635.47c-2.74,0-4.15-2.22-3.15-4.95l14.33-39.39a7.85,7.85,0,0,1,6.76-4.95h31.36c2.74,0,4.15,2.22,3.15,4.95l-14.33,39.39A7.85,7.85,0,0,1,666.83,940.4Z"/><path class="cls-2" d="M711.13,940.4H679.76c-2.73,0-4.14-2.22-3.15-4.95L691,896.06a7.83,7.83,0,0,1,6.75-4.95h31.37c2.73,0,4.14,2.22,3.15,4.95l-14.34,39.39A7.83,7.83,0,0,1,711.13,940.4Z"/><path class="cls-2" d="M755.42,940.4H724.06c-2.74,0-4.15-2.22-3.15-4.95l14.33-39.39a7.85,7.85,0,0,1,6.76-4.95h31.36c2.74,0,4.15,2.22,3.15,4.95l-14.33,39.39A7.85,7.85,0,0,1,755.42,940.4Z"/><path class="cls-2" d="M799.69,940.49H768.32c-2.73,0-4.14-2.22-3.15-5l14.34-39.38a7.83,7.83,0,0,1,6.75-5h31.37c2.73,0,4.14,2.22,3.15,5l-14.34,39.38A7.83,7.83,0,0,1,799.69,940.49Z"/><g class="cls-11"><g class="cls-16"><path class="cls-13" d="M656.71,746.83,626.88,725l205.9-218.73,29.83,21.81ZM875.34,559l-16.91-12.36L652.53,765.35l16.91,12.36Zm32.44,10-6.59-4.82L666.53,813.48l6.58,4.82ZM896,738.77l-2-1.46L688.09,956l2,1.47Zm43.62-21.57-3.72-2.72L663,1004.41l3.73,2.72Z"/></g></g><polygon class="cls-17" points="943.89 995 5 995 31.65 975.21 917.24 975.21 943.89 995"/><polygon class="cls-18" points="943.89 995 671.33 995 697.98 975.21 917.24 975.21 943.89 995"/></svg>