<svg xmlns="http://www.w3.org/2000/svg" viewBox="0 0 650 200"><defs><style>.cls-1{fill:#a7a8a8;fill-rule:evenodd;}</style></defs><g id="Capa_1" data-name="Capa 1"><path class="cls-1" d="M337.9,29.08H325.5c-.4,0-.8,0-1.2,0a2.15,2.15,0,0,0-2,2.26,4.38,4.38,0,0,0,.55,1.74c2.92,5.53,5.88,11,8.83,16.57l74.13,138.76c.88,1.64,1.73,3.3,2.65,4.92a3.11,3.11,0,0,0,4.14,1.32,3.83,3.83,0,0,0,1.65-1.84q6.67-12.53,13.37-25L491.85,47.61c2.64-4.93,5.26-9.88,7.92-14.8a2.43,2.43,0,0,0-2.11-3.76c-8.75.06-17.5,0-26.26,0a3.11,3.11,0,0,0-2.92,1.73c-.28.51-.54,1-.81,1.53L414.39,133.75a8,8,0,0,1-.73,1.27,3.14,3.14,0,0,1-5.05,0,9.33,9.33,0,0,1-.67-1.15l-8.61-16.39Q376.67,74.37,354,31.26a3.66,3.66,0,0,0-3.6-2.2C346.25,29.12,342.08,29.08,337.9,29.08Z"/><path class="cls-1" d="M626.56,170.92h12.26c.4,0,.8,0,1.2,0a2.27,2.27,0,0,0,2-3.09,9.44,9.44,0,0,0-.64-1.32l-33.27-62.27q-25.86-48.4-51.73-96.81a9.69,9.69,0,0,0-.58-1,3.12,3.12,0,0,0-5.12-.05A8.81,8.81,0,0,0,550,7.47l-35.1,65.67L465,166.55a11.75,11.75,0,0,0-.54,1.06,2.28,2.28,0,0,0,1.95,3.29c.4,0,.8,0,1.2,0h15.06c3.24,0,6.49-.06,9.73,0a3.67,3.67,0,0,0,3.88-2.4.67.67,0,0,1,.06-.12L539.61,86q5.31-10.08,10.6-20.16a3.25,3.25,0,0,1,6.09,0c.46,1,1,1.89,1.48,2.84q26.25,49.92,52.48,99.87a3.9,3.9,0,0,0,3.9,2.38C618.29,170.87,622.43,170.92,626.56,170.92Z"/><path class="cls-1" d="M123.11,105.64c.38.17.6.28.83.37,11.33,4.42,18.75,12.53,22.62,24a50.07,50.07,0,0,1,2.26,19.19,58.87,58.87,0,0,1-2.35,13.89c-3.62,11.75-11.12,20.13-22.19,25.39a64.55,64.55,0,0,1-16.75,5.11A107.89,107.89,0,0,1,89,195H12.46c-.54,0-1.07,0-1.6,0a3,3,0,0,1-2.94-2.87c0-.4,0-.8,0-1.2V33.08c-.21-2.68,1.29-4,4-4q40.65.07,81.3,0a55.15,55.15,0,0,1,24.63,5.39c10.68,5.26,18.17,13.4,21.64,24.89a43.61,43.61,0,0,1-.59,27.76A32.25,32.25,0,0,1,124,105.05,9.91,9.91,0,0,0,123.11,105.64ZM65.43,171c7.46,0,14.92,0,22.38,0a68.1,68.1,0,0,0,11.41-.86,35.84,35.84,0,0,0,10.86-3.44,19.87,19.87,0,0,0,10.74-13.82,33.88,33.88,0,0,0-.43-16.35,18,18,0,0,0-10.32-12.17,34.3,34.3,0,0,0-5.5-2,66.39,66.39,0,0,0-17-1.86q-24,0-48,0c-.31,0-.62,0-.93,0a3.24,3.24,0,0,0-3.39,3.2c0,.35,0,.71,0,1.07q0,21,0,42.1a8.45,8.45,0,0,0,.12,1.59A3.08,3.08,0,0,0,38.11,171c.44,0,.89,0,1.34,0Q52.44,171,65.43,171ZM65,53v0c-8.48,0-17,.07-25.45,0-3,0-4.35,1.38-4.33,4.3.09,11.68,0,23.36,0,35a11.75,11.75,0,0,0,0,1.33,3.15,3.15,0,0,0,2.85,2.88c.31,0,.62,0,.93,0q23.72,0,47.43,0A39.26,39.26,0,0,0,100,94.41c5.38-2,9.53-5.32,11.8-10.67a28.4,28.4,0,0,0,1.44-17.62,13.91,13.91,0,0,0-7.12-9.37,22.13,22.13,0,0,0-3.5-1.6A40.92,40.92,0,0,0,89,53C81,53,73,53,65,53Z"/><path class="cls-1" d="M294.79,105.64c.34.15.53.24.72.31,11.66,4.55,19.2,12.94,23,24.78a49.45,49.45,0,0,1,2.08,17.1,59,59,0,0,1-2.41,15.22,40.14,40.14,0,0,1-21.59,25.09,63.62,63.62,0,0,1-17.35,5.41A107,107,0,0,1,260.91,195H184a16.58,16.58,0,0,1-1.73,0,2.91,2.91,0,0,1-2.63-2.58,9.87,9.87,0,0,1-.06-1.33V33.08c0-.4,0-.8,0-1.2a3,3,0,0,1,2.89-2.79c.35,0,.71,0,1.06,0h81.3A55.67,55.67,0,0,1,288.42,34c9.87,4.55,17.23,11.63,21.44,21.76A43.22,43.22,0,0,1,313,73.56a41.14,41.14,0,0,1-3.28,15.67,32.32,32.32,0,0,1-14.09,15.82A9.83,9.83,0,0,0,294.79,105.64ZM237.14,171c7,0,14,0,21.05,0a79.38,79.38,0,0,0,10.9-.58,39.65,39.65,0,0,0,11.75-3.25c6-2.83,10-7.33,11.55-13.8a33.22,33.22,0,0,0-.51-17.5,17.5,17.5,0,0,0-9.44-11.16,36,36,0,0,0-6.22-2.31,63.42,63.42,0,0,0-16.75-1.87c-16.17,0-32.34,0-48.5,0-2.22,0-4.26,1-4,4.06v42.23a9.43,9.43,0,0,0,.09,1.6,3.06,3.06,0,0,0,2.81,2.59c.44,0,.89,0,1.33,0Q224.15,171,237.14,171ZM236.72,53v0H211.27c-.4,0-.8,0-1.2,0A3.13,3.13,0,0,0,207,56.09c0,.4,0,.8,0,1.2v35c0,.4,0,.8,0,1.2a3.14,3.14,0,0,0,2.86,3,14.17,14.17,0,0,0,1.46,0q21.79,0,43.57,0c2.57,0,5.15-.1,7.72-.25a31.94,31.94,0,0,0,9.21-1.94c5.91-2.18,10.17-6.07,12.26-12.1a29.68,29.68,0,0,0,1.12-15,14.39,14.39,0,0,0-5.71-9.45,19.09,19.09,0,0,0-5.18-2.7A42,42,0,0,0,260.7,53C252.7,53,244.71,53,236.72,53Z"/><path class="cls-1" d="M337.9,29.08c4.18,0,8.35,0,12.53,0a3.66,3.66,0,0,1,3.6,2.2q22.62,43.11,45.3,86.19l8.61,16.39a9.33,9.33,0,0,0,.67,1.15,3.14,3.14,0,0,0,5.05,0,8,8,0,0,0,.73-1.27L467.67,32.34c.27-.51.53-1,.81-1.53a3.11,3.11,0,0,1,2.92-1.73c8.76,0,17.51,0,26.26,0a2.43,2.43,0,0,1,2.11,3.76c-2.66,4.92-5.28,9.87-7.92,14.8L427.63,167.8q-6.69,12.51-13.37,25a3.83,3.83,0,0,1-1.65,1.84,3.11,3.11,0,0,1-4.14-1.32c-.92-1.62-1.77-3.28-2.65-4.92L331.69,49.67c-2.95-5.52-5.91-11-8.83-16.57a4.38,4.38,0,0,1-.55-1.74,2.15,2.15,0,0,1,2-2.26c.4,0,.8,0,1.2,0Z"/><path class="cls-1" d="M626.56,170.92c-4.13,0-8.27,0-12.4,0a3.9,3.9,0,0,1-3.9-2.38q-26.21-49.95-52.48-99.87c-.5-1-1-1.88-1.48-2.84a3.25,3.25,0,0,0-6.09,0Q544.93,75.92,539.61,86l-43.29,82.43a.67.67,0,0,0-.06.12,3.67,3.67,0,0,1-3.88,2.4c-3.24-.09-6.49,0-9.73,0H467.59c-.4,0-.8,0-1.2,0a2.28,2.28,0,0,1-1.95-3.29,11.75,11.75,0,0,1,.54-1.06l49.91-93.41L550,7.47a8.81,8.81,0,0,1,.65-1.16,3.12,3.12,0,0,1,5.12.05,9.69,9.69,0,0,1,.58,1q25.88,48.41,51.73,96.81l33.27,62.27a9.44,9.44,0,0,1,.64,1.32,2.27,2.27,0,0,1-2,3.09c-.4,0-.8,0-1.2,0Z"/></g></svg>