<svg xmlns="http://www.w3.org/2000/svg" viewBox="0 0 370 200"><defs><style>.cls-1{fill:#a7a8a8;}</style></defs><g id="Capa_1" data-name="Capa 1"><path class="cls-1" d="M214.1,105.2c-18.79.88-18.65-10-18.65-10L195,91.34c0-.3-.06-.59-.08-.89a7.33,7.33,0,0,1,3.14-2.4c3.63-1.67,7.62-1.26,11.45-2.24a4.17,4.17,0,0,0,3,.82c1.09-.14,1.63-1.19,2.51-.59a2.8,2.8,0,0,0,3.18.09c1-.6.72,0,1.5.73a4.47,4.47,0,0,0,1.68,1.06,4,4,0,0,0,2.61,0c2.32-.84,1.83-3.4,3-5,1.51,2.6,6.08,3.7,7.16.07a3.06,3.06,0,0,0-.45-2.47,13.6,13.6,0,0,0,1.46-1,3.35,3.35,0,0,0,2-3.08,4.82,4.82,0,0,0,5.43-2.19c.89-1.58.19-2.77-.39-4a2.22,2.22,0,0,0,1.79-1.37,3,3,0,0,0-.44-3.69,2.61,2.61,0,0,0,.32-.62c.61-1.92-.92-3.38-2-4.52,3.67-2.35,2.08-6.77-1-8.21.27-1.59-.35-3.32-2.24-2.65a3.41,3.41,0,0,0,1.09-3.4,4.75,4.75,0,0,0-1.41-3.43,2.58,2.58,0,0,0-.74-.49,4.16,4.16,0,0,0,.72-1.46c.74-3-1.22-5.45-3.9-4.31-.74.32-1.46,1.32-2.16.94a3.84,3.84,0,0,0,.46-2.28,3.12,3.12,0,0,0-2.49-2.57,2.54,2.54,0,0,0-1.53.22,4.2,4.2,0,0,0-1.18-1.7,3.44,3.44,0,0,0-3.79-.48,1.22,1.22,0,0,0-.14-.28c.88-2.22,1-5.51-1.21-6.76-2.39-1.35-4.44.67-5.58,2.92-.17-.09-.32-.18-.49-.26,1.12-1.48.66-4.18-1-4.94,1.65-2.42-.72-5.39-3.08-4.35A3.06,3.06,0,0,0,208.75,13a4.46,4.46,0,0,0-2.8,2c-.64-.46-1.64-.5-2.16-1s-.73-.22-.77-1.22a2.58,2.58,0,0,0-.36-1.29,3,3,0,0,0-2-1.47,3,3,0,0,0-2.87,1.14,3.16,3.16,0,0,0-.62,1.35,2.81,2.81,0,0,0-1.32.39,4.32,4.32,0,0,0-4.14-4.45c-.93,0-1.25.52-1.93-.25a8.58,8.58,0,0,0-.92-.89,9,9,0,0,0-2.17-1.39,8.44,8.44,0,0,0-1.52-.55,3.22,3.22,0,0,0-.5-.23,1.59,1.59,0,0,0-1.19,0,7.71,7.71,0,0,0-7.3,4.65A6,6,0,0,0,169,8.7a5.68,5.68,0,0,0-2.55,2.8,5.39,5.39,0,0,0-4-.9,6.49,6.49,0,0,0-2.13.69c-.78.4-.58.7-1.2,0A3.62,3.62,0,0,0,155.59,10c-2.3.48-3.39,2.92-3.15,5.38-.41.17-1.6-.53-2.21-.44-1,.14-1.54,1.17-2.45.82a6.52,6.52,0,0,0-4.28-.35c-3.06,1-4.29,5.19-3.68,8.38a3.35,3.35,0,0,0-3.59,2.95,3.34,3.34,0,0,0-4.19.08c-1.52,1.48-.87,4,0,5.73a3.67,3.67,0,0,0-2.16.75,5.15,5.15,0,0,0-1.44,2.26,4.38,4.38,0,0,0-.21,2.38,7.32,7.32,0,0,0-1.52.43c-2.1.87-4.54,3.54-3.45,6.29a3.71,3.71,0,0,0,2.69,2.25c.89.21.89,2.08,1.52,3a9.57,9.57,0,0,0-1.64,1.13l0,0c-1.87,1.59-.39.34,0,0-2.75,2.37-3.36,6.48-.42,9a5.82,5.82,0,0,0,1,.72,2,2,0,0,0,0,1.67,3.19,3.19,0,0,0,1.5,1.61,7.89,7.89,0,0,0,.84,5.09,5.39,5.39,0,0,0,3.66,2.6c.79.15,1.49-.32,2.12.08s.36.84.45,1.65a4.9,4.9,0,0,0,7.53,3.55c-.31,3.44,2.23,6.27,5.18,6.14.92.52,1.89,1,2.63,1.36a28.1,28.1,0,0,0,5.08,1.83A31.36,31.36,0,0,1,160,88.57a4.62,4.62,0,0,0,2.59.55A18.71,18.71,0,0,0,165,90c1.46.41,3.95.63,4.82,1.62a35.09,35.09,0,0,1,2.48,2.76c-.05.41-.09.81-.11,1.21,0,.21,0,.46,0,.68-.18.83-.37,1.66-.59,2.48-1.87,7.13-37.59,9.78-37.59,9.78l19.32,5.69c22,9.93,35.05,1.92,35.05,1.92s17.33.68,39.72-.53,33.19-8.33,33.19-8.33S232.9,104.33,214.1,105.2Z"/><path class="cls-1" d="M2.58,135.51H28.24s-8.82.7-8.82,10v29.09s-.65,4.29,4.61,4.29H36.26s5.58.81,10.84-9.39c0,0-1.43,12.71-9.55,12.71h-35s8-1,8-6.4v-30.3S11.16,135.51,2.58,135.51Z"/><path class="cls-1" d="M266.75,145.55H286.9s-6.93.55-6.93,7.88v22.84s-.51,3.37,3.62,3.37h9.6s4.39.64,8.52-7.37c0,0-1.13,10-7.5,10H266.75s6.29-.76,6.29-5v-23.8S273.48,145.55,266.75,145.55Z"/><path class="cls-1" d="M70.75,145.55c-11.08,0-20.06,8.21-20.06,18.35s9,18.35,20.06,18.35S90.82,174,90.82,163.9,81.84,145.55,70.75,145.55Zm-.09,33.87c-6.88,0-12.46-6.82-12.46-15.22S63.78,149,70.66,149s12.47,6.81,12.47,15.22S77.55,179.42,70.66,179.42Z"/><path class="cls-1" d="M209.38,145.55c-11.08,0-20.06,8.21-20.06,18.35s9,18.35,20.06,18.35,20.07-8.22,20.07-18.35S220.47,145.55,209.38,145.55Zm-.09,33.87c-6.88,0-12.46-6.82-12.46-15.22S202.41,149,209.29,149s12.47,6.81,12.47,15.22S216.18,179.42,209.29,179.42Z"/><path class="cls-1" d="M96.08,170.11v12.14a7.43,7.43,0,0,1,4.78-1.78,6.33,6.33,0,0,1,2.79.62,17.41,17.41,0,0,0,5.67,1.16h3.77a9.65,9.65,0,0,0,6.41-2.32,10.64,10.64,0,0,0,3.43-8.37c0-9.12-14.89-12.79-14.89-12.79s-10.2-2.75-5.51-8.69,15.87,2.38,16.25,6.15.11-10.68.11-10.68a4.41,4.41,0,0,1-3.73,1.56c-2.7,0-2-1.56-8.58-1.56s-12,3.26-11.5,9.34c.6,7.12,9.6,11.17,13.91,13.06.06.16,7.36,1.94,7.25,6.31-.07,2.7-1.56,5.13-5.83,4.91S97,175.56,96.08,170.11Z"/><path class="cls-1" d="M340.57,170.11v12.14a7.4,7.4,0,0,1,4.78-1.78,10.25,10.25,0,0,1,2.79.62c2.67.66,3.72,1.16,5.67,1.16h3.77a9.65,9.65,0,0,0,6.41-2.32,10.64,10.64,0,0,0,3.43-8.37c0-9.12-14.89-12.79-14.89-12.79s-10.2-2.75-5.51-8.69,15.87,2.38,16.25,6.15.11-10.68.11-10.68a4.41,4.41,0,0,1-3.73,1.56c-2.7,0-2-1.56-8.58-1.56s-12,3.26-11.5,9.34c.6,7.12,9.59,11.17,13.91,13.06.06.16,7.36,1.94,7.25,6.31-.07,2.7-1.56,5.13-5.83,4.91S341.46,175.56,340.57,170.11Z"/><path class="cls-1" d="M212,189.51c-2.51-4.95-6.57,1.35-11.23,1.28-2.81,0-6.73-2.09-9.39-3.63-4.27-2.47-17.39-15.53-22.72-26.61,0,0,10.09-4.58,9.71-12.46-.3-6.37-4.05-12.31-11.71-12.58s-28,0-28,0,7.56,1.94,7.56,10v27.28a9.13,9.13,0,0,1-2.28,6.06c-1.45,1.65-3.42,3.36-5.28,3.36h21.7s-6.69-1.51-6.69-6.37V162a3.57,3.57,0,0,1,5.34.16c3.47,3.64,19.66,31.1,37.79,32.68C212.13,196.13,212.47,190.47,212,189.51Zm-58.56-32.9V140.48s16.94-4.08,16.94,7.55S153.43,156.61,153.43,156.61Z"/><path class="cls-1" d="M257.87,163.9s6,.7,6-8.77-11.16-9.58-11.16-9.58H229a5.22,5.22,0,0,1,5.46,4.4v27.6c0,3.4-5.46,4.7-5.46,4.7h26c2.79,0,11.15-3.48,11.15-10S257.87,163.9,257.87,163.9Zm-16.79-13s15.62-3.73,15.62,5-15.62,5-15.62,5Zm0,26V167s16.76-3.72,16.76,5S241.08,176.94,241.08,176.94Z"/><path class="cls-1" d="M303.9,145.55h30.6v9.34s-.65-5.91-5.1-5.91H314.75v11.25h11.17s3.48-1.7,3.48-3.81v12.15s-.81-3.89-3.48-3.89-11.25-.16-11.25-.16v13.21H330s6.07-1.71,6.07-5,.12,6.35-3.08,9.55H303.9s4.69-1.62,4.69-5.43V149S308.19,145.55,303.9,145.55Z"/></g></svg>