<svg xmlns="http://www.w3.org/2000/svg" viewBox="0 0 850 200"><defs><style>.cls-1{fill:#a7a8a8;}</style></defs><g id="Capa_1" data-name="Capa 1"><circle class="cls-1" cx="95.47" cy="102.95" r="92.05"/><path class="cls-1" d="M218,192V61.7s2.94-45.36,63.59-45.36S342.06,65.7,342.06,65.7,341,94.16,320.27,103C345.4,111.73,345,123.07,345,130v62H294V137.08s2.23-8.45-12.56-8.45V87.94s12.12.22,12.12-14-12.06-12.06-12.06-12.06-13.29-1.95-13.29,11.61V192Z"/><path class="cls-1" d="M453.91,63V16.34H400.42A51.65,51.65,0,0,0,376.3,22c-8.22,4.34-16.45,11.73-16.45,24V161.54S363.41,192,390.09,192h63.82V145.08h-37.8s-9.23-.89-9.23-11.78,4.56-13.12,9.45-13.12h37.58V84.82H417.44s-10.56-.44-10.56-10.45S413,63,417,63Z"/><path class="cls-1" d="M615.84,33.83a90.56,90.56,0,0,0-151.59,66.89c0,47.62,36.76,87.66,83.45,91.28h0V141.56a43.36,43.36,0,1,1,36.93-75.33l31.21-32.4"/><path class="cls-1" d="M566.42,192s81.38,3.56,98.5-67.82C680.71,59.7,716.06,67,716.06,67V16.34S647.35,9,629.12,82.16c-12.9,75.37-62.7,63.81-62.7,63.81Z"/><path class="cls-1" d="M726.06,192V49s4.23-44,61.37-44,59.15,44.69,59.15,44.69V192H796.33V67.93s0-15.12-11.56-15.12-12.9,10-12.9,14.67.67,33.24.67,33.24h13.78v46.59H771V192Z"/></g></svg>