<svg xmlns="http://www.w3.org/2000/svg" viewBox="0 0 210 200"><defs><style>.cls-1{fill:#a7a8a8;}</style></defs><g id="Capa_1" data-name="Capa 1"><path class="cls-1" d="M64.44,99.21c-.79-1.49-1.57-2.91-2.3-4.35-1.09-2.18-1-2.38,1.46-2.32l23.12.64q30.06.81,60.12,1.62c2.25.07,4.49.24,6.73.41,1.52.11,1.67-.61,1.06-1.72-2.7-4.88-9.35-9.86-15.93-9.13-8.74,1-17.56,1.22-26.34,1.76-16.48,1-33,1.94-49.45,3-1.87.12-2.66-.39-3.07-2.21A37.09,37.09,0,0,1,59,72.54c.09-.51-.12-1.21.56-1.39s.77.48,1.1.79a40.84,40.84,0,0,0,16.48,9.92c2.81.85,3.51.6,5.19-1.75L134.77,6.76c1.67-2.35,1.68-2.34,3.23,0C156.8,34.82,175.51,63,194.45,91a58.45,58.45,0,0,1,9.86,25.67c2,15.35-.28,30.12-8.05,43.64-10.86,18.92-27.2,30.39-48.78,33.91a71.21,71.21,0,0,1-30.8-2.1,19.57,19.57,0,0,0-5.44-.69c-14.75.08-29.49.09-44.24.18-17.6.1-35.2.27-52.79.4-3,0-6,0-9.19,0a32.19,32.19,0,0,1,3.32-5.67c.58-.92,1.69-.68,2.64-.65q20,.65,39.9,1.29,27.51.94,55,1.93c1,0,2,0,3.07.11s1.64-.36,1.62-1.52a33.2,33.2,0,0,1,1-7.69c.26-1.21-.1-1.42-1.18-1.37q-16.87.69-33.75,1.34-13.8.54-27.61,1.08-17.07.66-34.16,1.28c-1.06,0-2.12,0-3.62,0,2.39-3.25,4.55-6.19,6.73-9.12a2.33,2.33,0,0,1,2.21-.75Q47,173.3,73.76,174.35c12.14.49,24.27,1,36.4,1.54,1.79.09,2.62-.28,3-2.2a80.2,80.2,0,0,1,2.6-8c-4.52,0-9.08-.15-13.62,0q-29.56,1.13-59.11,2.42c-6.82.28-13.63.6-20.45.91-.46,0-1.05.28-1.26-.28-.09-.25.25-.72.47-1,1.81-2.48,3.7-4.9,5.44-7.42.86-1.24,2-1.26,3.23-1.21q19.23.8,38.45,1.55c15.55.6,31.09,1.11,46.64,1.76a2.92,2.92,0,0,0,3.36-2.1,39.27,39.27,0,0,1,3.77-6.31c.28-.42.89-.84.54-1.42s-.87-.25-1.33-.23L78,154l-41.52,1.47c-1.77.06-3.54.17-5.27.25-.41-.72.14-1.08.43-1.49,1.45-2.06,3-4,4.37-6.17A4.94,4.94,0,0,1,41,145.55c10.5.55,21,.92,31.5,1.37l38,1.62,13.7.61c1,0,1.94.1,2.64-.77,2.56-3.17,5.53-6,8.71-9.41l-94.86,3.44c0-.35-.08-.59,0-.73,2.11-3.41,2.12-3.41-.35-6.65-.69-.9-1.42-1.76-2.34-2.89,2,0,3.65,0,5.31,0,10,.37,20,.9,30.06,1.14,21.68.52,43.33,1.64,65,2.53a8.64,8.64,0,0,0,4.07-.95c9.34-4.19,18.55-4.44,27.44,1.29a4.92,4.92,0,0,0,2.88.85c4.44,0,8.88-.09,13.31-.06,1.33,0,1.91-.32,2.09-1.77.31-2.45.26-4.9.45-7.34.13-1.68-.58-2-2.14-2-22.44.47-44.88.86-67.32,1.3L51.89,128.5l-14.11.32c-.83,0-1.62.08-2-1a40.46,40.46,0,0,1-1.8-20c1.51,1.25,2.79,2.43,4.19,3.44A63.35,63.35,0,0,0,52.34,119c3.73,1.46,7.69.93,11.54,1,16,.48,32.05.78,48.08,1.16q25.26.6,50.53,1.23c7.78.19,15.55.37,23.33.65,1.68.06,2.23-.4,1.88-2.06-.46-2.13-.89-4.25-1.49-6.35a2.64,2.64,0,0,0-3.06-2.21q-33.26.65-66.5,1.19l-56.48.94q-3.59.06-7.16.23a3.11,3.11,0,0,1-2.92-1.51,32.38,32.38,0,0,1-3.36-6.74c-.57-1.5-.2-1.94,1.37-1.87q10.63.54,21.26,1c8.38.31,16.76.7,25.16.75,9.47.06,19,.66,28.42,1a4.7,4.7,0,0,0,2.23-.36l-9.9-5.51.07-.69c4,0,8,0,12,0s8.18-.28,12.27-.23c4.78.07,6,1.1,7.38,5.68.44,1.5,1.15,2.39,2.81,2.41q16.77.24,33.56.52a3,3,0,0,0,.7-.22,20.89,20.89,0,0,0-5-5.88,33.68,33.68,0,0,0-9.17-5.28,6.27,6.27,0,0,0-2.82-.33l-67.7,2.69c-17,.67-34.09,1.3-51.13,2.05-1.94.09-2.49-.62-2.62-2.31a50.38,50.38,0,0,1,0-9.19c.06-.57-.06-1.39.59-1.59s1,.58,1.43,1c4.23,4.08,8.95,7.33,14.69,8.91a11.18,11.18,0,0,0,1.39.32A2.32,2.32,0,0,0,64.44,99.21Z"/></g></svg>