<svg xmlns="http://www.w3.org/2000/svg" viewBox="0 0 300 200"><defs><style>.cls-1{fill:#a7a8a8;fill-rule:evenodd;}</style></defs><g id="Capa_1" data-name="Capa 1"><path class="cls-1" d="M140.86,185.33c-15.29-9.58-26.56-42.63-26.56-81.91,0-1.44,0-2.86,0-4.28h0l0,0h0c-42.53-6.68-73.26-25-74-46.65h0l-.13.25h0C29.78,65.69,23.84,80.64,23.84,96.58c0,46.88,51.46,85.3,116.75,88.7h0l.27.05ZM4.17,100C4.17,47.54,69.46,5,150,5s145.83,42.54,145.83,95S230.54,195,150,195,4.17,152.46,4.17,100ZM150,18.71c15.55,0,28.78,23.58,33.67,56.49h0l0,0h0c30.25-4.71,51.43-15.57,51.43-28.21,0-17-38.11-30.7-85.12-30.7S64.88,30,64.88,46.94c0,12.64,21.18,23.5,51.43,28.21h0l0,0h0c4.9-32.91,18.13-56.49,33.67-56.49Zm9.41,166.57c65.29-3.4,116.76-41.82,116.76-88.7,0-15.94-5.95-30.89-16.35-43.82h0l-.13-.25h0c-.79,21.65-31.51,40-74.05,46.65h0l0,0h0c0,1.42,0,2.84,0,4.28,0,39.28-11.27,72.33-26.56,81.91h0l.27-.05ZM150,77.65c7,0,13.74-.3,20.22-.87h0c-3.23-21.09-11.06-36-20.21-36s-17,14.89-20.21,36h0c6.48.57,13.26.87,20.22.87Zm0,78.12c11.71,0,21.26-24.36,21.76-54.91h0l.07,0h0c-7.06.65-14.36,1-21.83,1s-14.77-.34-21.82-1h0l.06,0h0c.51,30.55,10,54.91,21.76,54.91Z"/></g></svg>